<?xml version="1.0" encoding="UTF-8"?>
<svg id="Layer_1" xmlns="http://www.w3.org/2000/svg" version="1.1" viewBox="0 0 1080 1080">
  <!-- Generator: Adobe Illustrator 29.8.2, SVG Export Plug-In . SVG Version: 2.1.1 Build 3)  -->
  <defs>
    <style>
      .st0 {
        fill: #fff;
        fill-rule: evenodd;
      }
    </style>
  </defs>
  <path class="st0" d="M839.39,759.84c-.07-.07-.14-.11-.21-.18-76.54-67.38-152.41-136.18-225.87-207.24-7.42,7.43-14.83,14.89-22.21,22.35,73.91,71.47,150.21,140.7,227.2,208.46,6.93,6.34,9.86,16.12,7.59,25.23-2.31,9.21-9.48,16.4-18.68,18.71-8.99,2.28-18.92-.49-25.12-7.53-67.69-76.94-136.78-153.42-208.07-227.42-7.35,7.5-14.66,15.06-21.93,22.63,70.73,73.44,139.23,149.29,206.39,225.63,13.92,15.84,36.07,22.39,56.39,17.27,20.46-5.11,36.45-21.13,41.56-41.62,5.11-20.39-1.5-42.18-17.04-56.3h0ZM533.58,403.32l-179.07-179.35c-6.12-6.13-16.13-6.13-22.25,0-6.16,6.17-6.16,16.19,0,22.32l175.71,175.99c-2.8,6.55-5.98,12.86-9.55,18.88l-180.36-180.65c-6.16-6.17-16.16-6.17-22.28,0-6.12,6.13-6.12,16.15,0,22.28l183.86,184.15c-4.2,4.76-8.68,9.25-13.43,13.49l-183.86-184.18c-6.12-6.13-16.13-6.13-22.25,0-6.16,6.17-6.16,16.15,0,22.32l180.36,180.65c-6.05,3.57-12.35,6.76-18.86,9.56l-175.71-175.99c-6.16-6.17-16.13-6.17-22.28,0-6.12,6.13-6.12,16.15,0,22.28l192.57,192.87c1.4,1.4,2.8,2.35,4.58,3.19,3.92,1.79,7.98,3.12,12.03,3.96,34.53-32.76,68.63-66.04,102.11-99.89-2.73-17.34-3.11-34.79-1.33-51.89h0Z"/>
  <path class="st0" d="M274.09,768c106.13-93.41,210.97-189.61,309.93-290.59,1.96-2.03,3.29-4.45,3.95-7.04.7-2.56.74-5.32,0-8.06-15.46-58.37,6.09-120.56,52.05-159.1,29.7-24.91,67.58-38.4,106.27-36.93,1.19.35,2.41.56,3.67.63,33.34,1.75,59.29,27.68,61.15,61.03v.32c2.34,39.84-11.16,79.01-36.7,109.56-38.48,46-100.61,67.62-158.85,52.1-2.9-.77-5.81-.66-8.46.11-2.41.7-4.72,2-6.61,3.89-100.85,99.12-196.84,204.33-290.2,310.49-6.19,7.01-16.13,9.77-25.12,7.5-9.2-2.28-16.37-9.5-18.68-18.67-2.27-9.14.66-18.88,7.59-25.23h0ZM253,744.57c-15.53,14.12-22.14,35.91-17.04,56.3,5.14,20.5,21.09,36.51,41.56,41.62,20.36,5.11,42.5-1.44,56.39-17.24,90.99-103.43,184.42-205.94,282.44-302.75,67.41,14.33,137.83-11.39,182.22-64.43,30.64-36.65,46.73-83.67,44.01-131.45v-.11c-2.52-48.42-39.63-86.64-87.45-90.85-1.22-.39-2.52-.63-3.88-.7-47.78-2.8-94.8,13.31-131.42,44.07-53,44.43-78.67,114.95-64.36,182.5-96.65,98.21-198.83,191.86-302.24,282.85-.07.07-.14.14-.21.17h0Z"/>
</svg>