<?xml version="1.0" encoding="UTF-8"?>
<svg id="Layer_1" xmlns="http://www.w3.org/2000/svg" version="1.1" viewBox="0 0 1080 1080">
  <!-- Generator: Adobe Illustrator 29.8.2, SVG Export Plug-In . SVG Version: 2.1.1 Build 3)  -->
  <defs>
    <style>
      .st0 {
        fill: #fff;
      }
    </style>
  </defs>
  <path class="st0" d="M402.49,577.88v23.38c0,7.62,6.18,13.8,13.8,13.8s13.8-6.18,13.8-13.8v-23.38c0-7.62-6.18-13.8-13.8-13.8s-13.8,6.18-13.8,13.8Z"/>
  <path class="st0" d="M665.3,615.06c7.62,0,13.8-6.18,13.8-13.8v-23.38c0-7.62-6.18-13.8-13.8-13.8s-13.8,6.18-13.8,13.8v23.38c0,7.62,6.18,13.8,13.8,13.8Z"/>
  <path class="st0" d="M275.12,650.56c36.06,114.65,143.34,193.88,264.4,193.88s228.25-79.22,264.32-193.88c20.95-1.92,40.58-11.66,54.74-27.46,15.85-17.7,23.44-41.49,20.81-65.29-4.25-38.45-35.24-69.44-73.69-73.69-.61-.07-1.27-.08-1.89-.13-16.76-53.11-49.77-100.83-93.76-135.2-6-4.7-14.68-3.63-19.37,2.37-4.7,6.01-3.63,14.68,2.37,19.37,37.97,29.68,66.73,70.42,82.36,115.86-13.03,3.33-25.16,9.68-35.19,18.72-5.66,5.1-6.11,13.83-1.01,19.49,2.72,3.02,6.48,4.56,10.25,4.56,3.29,0,6.6-1.17,9.24-3.55,9.63-8.68,22.15-13.74,35.27-14.27.01,0,.02,0,.03,0h.13c3.31-.13,6.04-.06,8.54.21,25.72,2.84,46.44,23.56,49.28,49.29,1.8,16.24-3.15,31.81-13.93,43.84-10.63,11.87-25.87,18.68-41.79,18.68-.24,0-.47.06-.71.07-6.8-1.03-13.49,3.12-15.36,9.93-29.6,108.02-128.56,183.47-240.64,183.47s-211.04-75.38-240.68-183.32c-1.81-6.61-8.15-10.73-14.76-10.03-.43-.04-.84-.13-1.28-.13-15.93,0-31.16-6.81-41.79-18.68-10.78-12.03-15.73-27.6-13.93-43.84,2.84-25.72,23.56-46.45,49.28-49.29,2.51-.28,5.26-.35,8.61-.22h0c13.16.51,25.72,5.57,35.38,14.28,2.64,2.38,5.94,3.55,9.23,3.55,3.77,0,7.53-1.54,10.25-4.56,5.1-5.66,4.65-14.38-1.01-19.49-10.09-9.09-22.29-15.46-35.4-18.77,24.96-72.78,82.67-130.38,155.44-155.23,5.55,32.71,34.02,57.72,68.29,57.72,32.3,0,54-21.7,54-54,0-27.21-22.14-49.34-49.35-49.34-7.62,0-13.8,6.18-13.8,13.8s6.18,13.8,13.8,13.8c11.99,0,21.75,9.75,21.75,21.74,0,17.02-9.37,26.4-26.4,26.4-23.02,0-41.74-18.72-41.74-41.74,0-1.84.1-3.65.28-5.44,0,0,0,0,0-.01h0c2.77-28.6,26.57-50.17,55.35-50.17,40.24,0,72.98,32.74,72.98,72.98,0,52.2-42.47,94.67-94.67,94.67-7.62,0-13.8,6.18-13.8,13.8s6.18,13.8,13.8,13.8c67.42,0,122.27-54.85,122.27-122.27,0-55.46-45.12-100.58-100.58-100.58-39.84,0-73.24,27.67-81.31,65.72-87.59,26.33-156.99,94.83-184.45,182-.64.05-1.3.06-1.93.13-38.45,4.25-69.44,35.24-73.69,73.69-2.63,23.79,4.96,47.59,20.81,65.29,14.14,15.79,33.75,25.52,54.67,27.46Z"/>
  <path class="st0" d="M596.02,673.02c-12.77,18.73-33.89,29.91-56.51,29.91s-43.74-11.18-56.51-29.91c-4.3-6.3-12.88-7.91-19.18-3.63-6.3,4.29-7.92,12.88-3.63,19.18,17.92,26.27,47.57,41.96,79.31,41.96s61.4-15.69,79.31-41.96c4.29-6.3,2.67-14.88-3.63-19.18-6.3-4.28-14.88-2.67-19.18,3.63Z"/>
</svg>