<?xml version="1.0" encoding="UTF-8"?>
<svg id="Layer_1" xmlns="http://www.w3.org/2000/svg" version="1.1" viewBox="0 0 1324.8 945.32">
  <!-- Generator: Adobe Illustrator 30.0.0, SVG Export Plug-In . SVG Version: 2.1.1 Build 123)  -->
  <defs>
    <style>
      .st0 {
        fill: #fdc700;
      }
    </style>
  </defs>
  <path class="st0" d="M1106.22,740.61c-179.3,82.45-444.46,204.71-444.46,204.71,0,0-271.73-122.26-443.35-205.63v-326.68l395.71,163.52c26.89,11.07,64.34,13.75,83.33,5.91l408.77-169.43v327.6Z"/>
  <path class="st0" d="M1316.06,285.34l-625.56,259.17c-15.21,6.29-45.27,4.15-66.85-4.74L95.79,321.66v97.2c24.29,3.87,42.24,17.78,42.24,34.26,0,13.84-12.73,25.86-31.26,31.71,2.51,4.36,4,9.39,4,14.75v51.72c0,10.63-5.81,20.02-14.42,25.12l42.46,329.68h-28.29l-21.24,22.65-49.58-18.44-19.77-5.61,46.53-328.37c-8.44-5.19-14.12-14.49-14.12-25.04v-51.72c0-5.35,1.49-10.38,4-14.75-18.53-5.85-31.3-17.79-31.3-31.71,0-17.13,19.4-31.38,45.09-34.75v-107.31l-49.88-20.61c-21.58-8.95-26.73-21.39-11.51-27.68L634.27,3.67c15.25-6.37,45.3-4.22,66.84,4.66l603.43,249.32c21.58,8.96,26.73,21.4,11.51,27.69Z"/>
</svg>