<?xml version="1.0" encoding="UTF-8"?>
<svg id="Layer_1" xmlns="http://www.w3.org/2000/svg" version="1.1" viewBox="0 0 4000 4000">
  <!-- Generator: Adobe Illustrator 29.8.2, SVG Export Plug-In . SVG Version: 2.1.1 Build 3)  -->
  <defs>
    <style>
      .st0 {
        fill: #fff;
      }
    </style>
  </defs>
  <path class="st0" d="M3195.11,2954.92c57.47,0,104.07,46.59,104.07,104.07v523.99c0,42.52-8.35,83.83-24.82,122.76-15.89,37.56-38.61,71.27-67.53,100.19-28.92,28.92-62.63,51.64-100.19,67.53-38.94,16.47-80.25,24.82-122.77,24.82h-775.84v-416.16c0-114.71-93.32-208.03-208.03-208.03s-208.03,93.32-208.03,208.03v416.16h-775.84c-42.52,0-83.83-8.35-122.77-24.82-37.56-15.89-71.27-38.61-100.19-67.53-28.92-28.92-51.64-62.63-67.53-100.19-16.47-38.94-24.82-80.24-24.82-122.76v-523.99c0-57.47,46.59-104.07,104.07-104.07s104.07,46.59,104.07,104.07v523.99c0,59.1,48.08,107.18,107.17,107.18h567.71v-208.03c0-56.14,11.02-110.65,32.75-162.02,20.97-49.57,50.96-94.07,89.15-132.25,38.19-38.19,82.68-68.18,132.25-89.15,51.37-21.73,105.89-32.75,162.02-32.75s110.65,11.02,162.02,32.75c49.57,20.97,94.06,50.96,132.25,89.15,38.19,38.19,68.18,82.68,89.14,132.25,21.73,51.37,32.75,105.89,32.75,162.02v208.03h567.7c59.1,0,107.18-48.08,107.18-107.18v-523.99c0-57.47,46.59-104.07,104.07-104.07M3195.11,2853.2c-54.97,0-106.64,21.41-145.51,60.27-38.87,38.87-60.27,90.54-60.27,145.51v523.99c0,2.96-2.5,5.46-5.46,5.46h-465.99v-106.31c0-69.83-13.72-137.67-40.78-201.65-26.09-61.69-63.4-117.05-110.9-164.55-47.5-47.5-102.86-84.81-164.55-110.9-63.98-27.06-131.82-40.78-201.65-40.78s-137.67,13.72-201.65,40.78c-61.69,26.09-117.05,63.41-164.55,110.9-47.49,47.49-84.81,102.86-110.9,164.55-27.06,63.98-40.78,131.82-40.78,201.65v106.31h-465.99c-2.96,0-5.46-2.5-5.46-5.46v-523.99c0-54.97-21.41-106.64-60.27-145.51-38.87-38.87-90.54-60.27-145.51-60.27s-106.64,21.41-145.51,60.27c-38.87,38.87-60.27,90.54-60.27,145.51v523.99c0,56.2,11.05,110.84,32.85,162.38,21.01,49.68,51.05,94.26,89.29,132.5,38.23,38.23,82.81,68.27,132.49,89.29,51.54,21.8,106.18,32.86,162.39,32.86h877.56v-517.88c0-58.62,47.69-106.31,106.31-106.31s106.31,47.69,106.31,106.31v517.88h877.55c56.21,0,110.84-11.05,162.39-32.86,49.69-21.02,94.26-51.06,132.49-89.29,38.23-38.23,68.27-82.81,89.29-132.49,21.8-51.54,32.86-106.18,32.86-162.39v-523.99c0-54.97-21.41-106.64-60.27-145.51-38.87-38.87-90.54-60.27-145.51-60.27h0Z"/>
  <path class="st0" d="M2103.86,101.72v225.15h241.36v207.72h-241.36v447.28l823.5,496.05v747.4l603.81,338.26c50.04,28.03,67.88,91.33,39.85,141.37-19.04,33.98-54.34,53.12-90.71,53.12-17.18,0-34.61-4.27-50.67-13.27l-1429.64-800.9-1429.64,800.9c-16.06,9-33.48,13.27-50.67,13.27-36.37,0-71.67-19.14-90.71-53.12-28.03-50.04-10.19-113.34,39.85-141.37l603.81-338.26v-747.4l823.5-496.04v-447.28h-241.36v-207.72h241.36V101.72h207.72M1280.36,2108.95l719.64-403.15,719.64,403.15v-513.66l-719.64-433.48-719.64,433.48v513.66M2205.58,0h-411.15v225.15h-241.36v411.15h241.36v288.09l-774.26,466.39-49.23,29.66v745.27l-551.8,309.13c-47.91,26.84-82.5,70.72-97.39,123.58-14.9,52.85-8.32,108.34,18.52,156.25,36.32,64.84,105.08,105.12,179.44,105.12,35.02,0,69.73-9.08,100.38-26.25l1379.93-773.05,1379.93,773.05c30.65,17.17,65.36,26.24,100.38,26.24,74.36,0,143.12-40.28,179.45-105.12,26.84-47.9,33.41-103.39,18.51-156.24-14.9-52.85-49.48-96.74-97.39-123.58l-551.8-309.13v-745.27l-49.23-29.66-774.27-466.39v-288.09h241.36V225.15h-241.36V0h0ZM1382.08,1652.76l617.92-372.21,617.92,372.21v282.62l-568.21-318.32-49.71-27.85-49.71,27.85-568.21,318.32v-282.62h0Z"/>
</svg>