<?xml version="1.0" encoding="UTF-8"?>
<svg id="Isolation_Mode" xmlns="http://www.w3.org/2000/svg" version="1.1" viewBox="0 0 595.28 146.3">
  <!-- Generator: Adobe Illustrator 29.8.1, SVG Export Plug-In . SVG Version: 2.1.1 Build 2)  -->
  <defs>
    <style>
      .st0 {
        fill: #211a16;
      }
    </style>
  </defs>
  <polygon class="st0" points="104.93 0 104.93 104.35 79.29 104.35 79.29 50.16 52.82 70.4 26.36 50.16 26.36 104.35 .72 104.35 .72 0 52.82 40.05 104.93 0"/>
  <path class="st0" d="M116.02,71.09V2.08h25.63v65.54c0,8.04,5.96,13.86,14.27,13.86s14.27-5.82,14.27-13.86V2.08h25.64v69.01c0,19.96-18.02,35.06-39.91,35.06s-39.91-15.1-39.91-35.06"/>
  <polygon class="st0" points="269.42 80.79 269.42 104.35 206.93 104.35 206.93 2.08 232.56 2.08 232.56 80.79 269.42 80.79"/>
  <polygon class="st0" points="341.62 25.64 316.54 25.64 316.54 104.34 290.9 104.34 290.9 25.64 265.82 25.64 265.82 2.08 341.62 2.08 341.62 25.64"/>
  <rect class="st0" x="345.23" y="2.08" width="25.64" height="102.27"/>
  <polygon class="st0" points="408.97 25.64 408.97 41.57 438.63 41.57 438.63 65.13 408.97 65.13 408.97 104.34 383.34 104.34 383.34 2.08 408.97 2.08 445.42 2.08 445.42 25.64 408.97 25.64"/>
  <polygon class="st0" points="516.23 80.79 516.23 104.35 453.73 104.35 453.73 2.08 479.37 2.08 479.37 80.79 516.23 80.79"/>
  <path class="st0" d="M531.22,108.47c15.03-23.12,36.39-58.69,64.06-106.64,0,0-46.54,26.19-47.44,26.19-10.03-6.32-41.55-26.19-41.55-26.19,0,0,24.94,51.81,24.94,51.96v54.68Z"/>
  <path class="st0" d="M564.47,93.12c0-7.07,5.68-12.75,12.61-12.75s12.61,5.68,12.61,12.75-5.68,12.61-12.61,12.61-12.61-5.68-12.61-12.61"/>
  <polygon class="st0" points="8.04 130.32 8.04 133.55 15.3 133.55 15.3 138.22 8.04 138.22 8.04 141.52 15.86 141.52 15.86 146.3 5.54 146.3 2.84 146.3 2.84 125.53 8.04 125.53 15.86 125.53 15.86 130.32 8.04 130.32"/>
  <polygon class="st0" points="50.59 125.53 41.16 146.72 31.76 125.53 37.06 125.53 41.19 135.52 45.36 125.53 50.59 125.53"/>
  <polygon class="st0" points="71.98 130.32 71.98 133.55 79.24 133.55 79.24 138.22 71.98 138.22 71.98 141.52 79.8 141.52 79.8 146.3 69.48 146.3 66.77 146.3 66.77 125.53 71.98 125.53 79.8 125.53 79.8 130.32 71.98 130.32"/>
  <polygon class="st0" points="114.16 146.72 102.45 136.7 102.45 146.3 97.25 146.3 97.25 125.11 108.96 135.52 108.96 125.53 114.16 125.53 114.16 146.72"/>
  <polygon class="st0" points="146.04 130.32 140.95 130.32 140.95 146.3 135.75 146.3 135.75 130.32 130.65 130.32 130.65 125.53 146.04 125.53 146.04 130.32"/>
  <path class="st0" d="M160.82,143.96l2.56-3.55c1.38,1.1,2.62,1.52,3.63,1.52,1.41,0,2.28-.84,2.28-1.88,0-2.95-7.34-2.65-7.34-8.5,0-3.46,2.98-6.39,7.03-6.39,1.97,0,4.08.7,5.91,2.11l-2.31,3.66c-.98-.73-2.02-1.24-3.04-1.24-1.41,0-2.11.82-2.11,1.72,0,2.62,7.6,2.5,7.6,8.69,0,3.29-2.7,6.56-7.63,6.56-2.16,0-4.33-.76-6.58-2.7"/>
  <polygon class="st0" points="220.17 130.32 220.17 133.55 226.19 133.55 226.19 138.34 220.17 138.34 220.17 146.3 214.97 146.3 214.97 125.53 220.17 125.53 227.57 125.53 227.57 130.32 220.17 130.32"/>
  <polygon class="st0" points="257.71 141.51 257.71 146.3 245.02 146.3 245.02 125.53 250.22 125.53 250.22 141.51 257.71 141.51"/>
  <polygon class="st0" points="290.02 125.53 280.31 146.3 274.76 146.3 278.62 138.31 272.43 125.53 277.92 125.53 281.29 132.74 284.36 125.53 290.02 125.53"/>
  <rect class="st0" x="306.2" y="125.53" width="5.2" height="20.76"/>
  <polygon class="st0" points="346.61 146.72 334.9 136.7 334.9 146.3 329.7 146.3 329.7 125.11 341.4 135.52 341.4 125.53 346.61 125.53 346.61 146.72"/>
  <path class="st0" d="M383.87,133.69v9.2c-2.08,2.34-5.97,3.77-9.09,3.77-6.13,0-10.86-4.73-10.86-10.78s4.73-10.72,10.86-10.72c2.59,0,5.35.96,7.37,2.56l-2.78,4.02c-1.15-.87-2.7-1.41-4.22-1.41-3.24,0-5.6,2.48-5.6,5.6s2.42,5.54,5.49,5.54c1.41,0,2.79-.45,3.86-1.21v-2.28h-4.19v-4.31h9.17Z"/>
  <path class="st0" d="M435.48,143.71h-6.64l-1.04,2.59h-5.51l9.88-21.19,9.9,21.19h-5.54l-1.04-2.59ZM433.99,140l-1.83-4.56-1.83,4.56h3.66Z"/>
  <path class="st0" d="M473.53,140.11c0,3.66-2.87,6.19-7.06,6.19h-8.22v-20.76h7.76c3.86,0,6.36,2.14,6.36,5.43,0,1.83-.87,3.38-2.28,4.39,2.14.9,3.43,2.59,3.43,4.75M463.34,130.06v3.71h1.86c1.01,0,1.72-.67,1.72-1.83,0-1.24-.7-1.88-1.72-1.88h-1.86ZM467.9,139.74c0-1.27-.84-1.97-2.14-1.97h-2.42v3.99h2.39c1.32,0,2.17-.7,2.17-2.03"/>
  <path class="st0" d="M489.77,135.92c0-5.99,4.81-10.75,10.86-10.75s10.86,4.75,10.86,10.75-4.81,10.75-10.86,10.75-10.86-4.76-10.86-10.75M505.86,135.92c0-3.12-2.19-5.57-5.23-5.57s-5.23,2.45-5.23,5.57,2.19,5.57,5.23,5.57,5.23-2.45,5.23-5.57"/>
  <polygon class="st0" points="544.67 125.53 535.24 146.72 525.84 125.53 531.13 125.53 535.27 135.52 539.43 125.53 544.67 125.53"/>
  <polygon class="st0" points="566.05 130.32 566.05 133.55 573.32 133.55 573.32 138.22 566.05 138.22 566.05 141.52 573.87 141.52 573.87 146.3 563.55 146.3 560.85 146.3 560.85 125.53 566.05 125.53 573.87 125.53 573.87 130.32 566.05 130.32"/>
</svg>