<?xml version="1.0" encoding="UTF-8"?>
<svg xmlns="http://www.w3.org/2000/svg" version="1.1" viewBox="0 0 2500 1329.9">
  <!-- Generator: Adobe Illustrator 29.7.1, SVG Export Plug-In . SVG Version: 2.1.1 Build 8)  -->
  <defs>
    <style>
      .st0 {
        mix-blend-mode: darken;
        opacity: .48;
      }

      .st0, .st1 {
        fill: #fff;
      }

      .st2 {
        isolation: isolate;
      }
    </style>
  </defs>
  <g class="st2">
    <g id="Layer_1">
      <g>
        <g>
          <path class="st1" d="M271.31,169.83v-1.5s9.98-10.31,9.98-10.31h1.49c7.82,9.98,20.45,16.46,31.43,16.46,13.63,0,21.78-6.32,21.78-14.97,0-12.97-13.97-14.47-29.93-20.29-12.8-4.49-29.27-11.64-29.27-30.6,0-17.63,15.3-30.26,37.75-30.26,16.96,0,30.43,6.98,37.92,16.46v1.5s-9.81,10.31-9.81,10.31h-1.33c-5.82-6.82-14.63-12.81-26.44-12.81-11.31,0-19.29,5.49-19.29,13.64,0,9.15,8.81,12.47,19.12,16.13,18.29,6.32,40.24,11.47,40.24,35.59,0,19.46-16.96,31.26-39.58,31.26-17.79,0-34.42-7.65-44.07-20.62Z"/>
          <path class="st1" d="M581.94,188.46h-18.46s0-92.46,0-92.46h-34.92s0-15.63,0-15.63h88.3s0,15.63,0,15.63h-34.92s0,92.46,0,92.46Z"/>
          <path class="st1" d="M816.4,80.36v63.52c0,17.96,11.64,29.93,29.1,29.93,17.46,0,29.1-11.97,29.1-29.93v-63.52s17.96,0,17.96,0v63.19c0,28.27-18.79,46.89-47.06,46.89-28.6,0-47.56-18.62-47.56-46.89v-63.19s18.46,0,18.46,0Z"/>
          <path class="st1" d="M1186.23,134.24c0,32.59-22.28,54.21-56.54,54.21h-44.07s0-108.09,0-108.09h44.07c34.25,0,56.54,21.62,56.54,53.88ZM1167.44,134.41c0-23.45-15.14-38.41-38.08-38.41h-25.27s0,76.83,0,76.83h25.27c22.95,0,38.08-14.97,38.08-38.41Z"/>
          <path class="st1" d="M1392.09,80.36v108.09s-18.46,0-18.46,0v-108.09s18.46,0,18.46,0Z"/>
          <path class="st1" d="M1579.33,134.41c0-32.09,25.11-56.04,58.04-56.04,32.92,0,58.03,23.95,58.03,56.04,0,32.09-25.11,56.04-58.03,56.04-32.93,0-58.04-23.95-58.04-56.04ZM1676.78,134.41c0-22.95-17.13-39.41-39.41-39.41-22.12,0-39.25,16.46-39.25,39.41,0,22.95,17.13,39.41,39.25,39.41,22.28,0,39.41-16.46,39.41-39.41Z"/>
        </g>
        <g>
          <path class="st1" d="M2107.44,0h-168.89s0,340.3,0,340.3h-65.65s-163.93,0-163.93,0l-4.96,334.45c0,45.76-16.34,84.86-48.99,117.31-32.65,32.45-72,48.67-118.03,48.67-46.06,0-85.19-16.23-117.43-48.67-32.23-32.45-48.34-71.55-48.34-117.31v-334.45s-11.28,0-11.28,0h-157.62s-395,0-395,0v.07c-91.31.69-169.61,33.59-234.78,98.77-65.9-65.88-145.13-98.84-237.71-98.84-1.19,0-2.36.07-3.54.08v-.08H-.23s0,320.18,0,320.18h.05c-.15,4.38-.29,8.76-.29,13.21v315.92s168.9,0,168.9,0v-315.7c0-45.75,16.32-84.65,48.97-116.67,32.65-32.02,72-48.05,118.06-48.05,45.2,0,84.13,16.23,116.78,48.67,32.65,32.45,48.99,71.11,48.99,116.04v315.7s168.89,0,168.89,0v-400.57s0-1.23,0-1.23c32.53-52.41,79.64-78.62,141.37-78.62,45.86,0,84.86,16.03,116.98,48.05,32.09,32.02,48.16,70.92,48.16,116.67v315.7s168.9,0,168.9,0v-315.92c0-61.47-14.24-116.66-42.52-165.65h99.31s0,166.92,0,166.92c0,93.24,32.52,172.34,97.58,237.27,65.06,64.94,144.28,97.39,237.71,97.39,59.21,0,114.67-14.6,166.39-43.78v30.02c0,45.86-16.27,84.86-48.79,116.98-32.53,32.1-71.75,48.17-117.6,48.17v168.89c94.24,0,173.68-32.08,238.33-96.22,64.63-64.16,96.96-143.29,96.96-237.39v-488.25s65.65,0,65.65,0v147.95c0,93.3,32.52,172.24,97.58,236.79s144.28,96.82,237.71,96.82v-168.89c-45.88,0-85.07-16.05-117.6-48.17-32.53-32.09-48.79-71.1-48.79-116.98v-147.52s166.39,0,166.39,0v-23.87s0-143.87,0-143.87h-166.39s0-340.3,0-340.3Z"/>
          <circle class="st1" cx="2415.56" cy="905.16" r="84.44" transform="translate(654.9 2790.45) rotate(-67.5)"/>
        </g>
        <path class="st0" d="M572.53,439.13s97.58,94.99,97.58,176.09c0,0-14.07-94.95,153.54-105.6v-169.33s-130.82-19.9-251.12,98.84Z"/>
        <path class="st0" d="M1103,508.04s-90.11-167.75-263.14-167.75h531.35s-168.89,167.75-168.89,167.75h-99.31Z"/>
        <polygon class="st0" points="1708.96 340.3 1872.89 508.04 2273.83 508.04 2273.83 340.3 1708.96 340.3"/>
        <path class="st0" d="M1704,965.84s168.89-99.18,168.89-266.8v310.98s1.69,121.12-84.45,210.58c0,0-66.78,102.13-250.84,109.31v-168.89s168.09,12.15,166.39-195.17Z"/>
        <path class="st0" d="M331.28,340.3S74.36,323.24-.47,615.23v-274.93s331.75,0,331.75,0Z"/>
      </g>
    </g>
  </g>
</svg>