<?xml version="1.0" encoding="UTF-8"?>
<svg id="Layer_1" xmlns="http://www.w3.org/2000/svg" version="1.1" viewBox="0 0 1200 800">
  <!-- Generator: Adobe Illustrator 29.7.1, SVG Export Plug-In . SVG Version: 2.1.1 Build 8)  -->
  <defs>
    <style>
      .st0, .st1 {
        fill: #fff;
      }

      .st1 {
        fill-rule: evenodd;
      }
    </style>
  </defs>
  <path class="st0" d="M411.6,672.4l.2,4.2c0,1.2.2,2,.2,2.5l-.7.2c-1.2-2.7-2.7-4.7-4.4-6.2-1.7-1.2-3.9-2-6.4-2-3.2,0-5.7.5-7.4,1.2-2.5,1-4.7,3-6.4,5.7-1.7,2.7-2.7,5.9-2.7,9.6,0,2.2.2,4.2,1,5.9.7,1.7,1.5,3.4,2.7,4.9s2.7,2.7,4.2,3.9c1,.7,2.2,1.2,3.7,1.7.7.2,2,.2,3.7.2,1,0,2.2,0,3.4-.5,1.2-.2,2.2-.7,3-1.2.7-.5,1-1,1.2-1.7s.2-2,.2-3.7c0-3.2-.2-4.9-.5-5.4-.5-.5-1.7-.7-3.9-1h-2l-.5-.7s0-.2.2-.2c1-.2,3-.2,5.9-.2h10.5v.9c-.7.2-1.2.2-1.7.2h-1.7c-.5,0-1,.2-1.5.5-.2.2-.2.7-.2,2v3.4c0,2.5,0,3.9-.2,4.7,0,.2-.2.7-.7,1-.2.2-1,.7-2.2,1-1.5.5-3,1-4.2,1.2-2.2.5-4.7.5-6.9.5-3.4,0-6.4-.5-8.6-1.2-2.2-1-4.2-2.2-5.9-3.7-1.7-1.7-2.7-3.2-3.4-4.9-1-2.5-1.5-4.9-1.5-7.4,0-3.2.7-6.2,2.5-9.1,1.7-3,4.4-5.4,7.9-7.4,2.5-1.2,6.2-2,10.6-2,3,0,5.7.2,7.4.7,2.4,1.1,3.8,1.6,5.1,2.4M419.4,703.9c2.7-.2,3.9-.5,4.4-.7.2,0,.5-.2.5-.7v-.2c0-.5,0-2,.2-4.9v-20.4c0-2-.2-3.2-.5-3.7-.2-.5-1.2-.7-2.5-1-1.5-.2-2.2-.2-2.2-.5-.2,0-.2-.2-.2-.5v-.5c.2-.2.5-.2,1.2-.2h11c3.9,0,6.6.2,8.4,1,1.5.5,3,1.5,3.7,3,1,1.5,1.5,3,1.5,4.7,0,3.2-1.7,5.7-5.2,7.4-.5.2-1,.5-1.5.7.5,1.2,1.5,2.7,2.5,4.7l3.4,5.9c1.2,2.2,2.2,3.4,2.7,3.9s1.2,1,2,1.2c.7.2,2,.7,3.7,1v1h-9.6c-1.2-2.5-2.7-5.2-4.4-7.9l-3.9-7.1c-.5-.7-1-1.2-1.2-1.5-.2-.2-.7-.2-1.5-.2h-2.9v12.5c0,.2,0,.7.2,1.5l.7.7c.2.2,1.2.5,3,1l1,.2c.2.2.2.5.2.7-.5,0-.7.2-1,.2h-14.2v-.2c.3-.6.3-.9.5-1.1M429.5,686.4h1c1.2,0,2.7,0,4.4-.5,1.2-.2,2.2-.5,3-1.2.7-.5,1.2-1.2,1.7-2.2s.7-2.2.7-3.2c0-1.2-.2-2.5-1.2-3.9-.5-1-1.5-2-3-2.5-1.5-.7-3.2-1-4.9-1h-2v2.2l.2,4.9v2c-.1,1.7-.1,3.4.1,5.4M467.7,670.7c0,.2.2.5.2.7v.5c-.5.2-.7.2-1.2.2h-1.4c-.7,0-1.5.2-2,.5-.2.2-.5.5-.5.7l-.2,3v13.3c0,4.9.2,7.9.5,9.1.2,1.2.7,2.2,1.5,3,.7.7,1.7,1.5,3.2,2s2.7.7,4.2.7c3,0,5.4-.5,6.9-1.2,1.7-.7,2.7-2,3.4-3.7.7-1.5,1-3.9,1-6.9v-6.1l-.5-7.6c-.2-2.5-.2-4.2-.5-4.7-.2-.5-.5-.7-.7-1-.7-.5-2-1-3.9-1.2,0-.2-.2-.5-.2-.7h11.1v1c-2.2.2-3.4.5-3.9,1s-.7,1-.7,2.2v3.7l.2,5.7v4.9c0,3.4,0,5.9-.2,7.1-.2,1.7-.7,3.2-1.2,4.2s-1.2,2-2.2,2.7-2.2,1.5-3.9,2c-1.7.5-3.2.7-4.9.7-2.5,0-4.4-.2-5.4-.5-2-.5-3.7-1.5-4.9-2.5-1.2-1-2-2-2.5-3-.5-1.2-1-3.2-1-5.7v-19.9c0-1,0-1.7-.5-2.2-.2-.2-.5-.5-.7-.5h-1.5c-1.2,0-2,0-2.2-.2v-.5q0-.2.2-.5c.2,0,.5-.2.7-.2h6.6l7.1-.1ZM492.1,670.7h5.2c.5,0,1.2,0,2.5-.2l4.4-.2c1.2,0,2.5-.2,4.2-.2,2.7,0,4.9.5,6.6,1.2s3,2,3.9,3.7c1,1.7,1.2,3.4,1.2,5.2,0,2.7-1,5.2-3,7.1-2,2-4.7,3-7.9,3-1,0-1.7,0-2.2-.2-.7-.2-1.2-.5-2.2-1l-.7-.7.2-.2c.2,0,.5,0,.7.2.5.2,1.5.2,2.2.2,1.5,0,2.7-.2,3.9-1,1.2-.7,2.2-1.7,3-3,.7-1.2,1-2.7,1-3.9,0-1.5-.2-2.7-1-3.9-.7-1.2-1.5-2.5-2.7-3.2-.5-.5-1.5-.7-3-1.2-1.2-.2-2.2-.5-3-.5-2.2,0-3.4.2-3.9.5v6.2c0,3.7,0,5.9.2,6.6v1.5l.2,12.1v2.2c0,.7,0,1.5.2,2,.5,0,1.7.5,3.7,1,1,.2,1.5.2,1.5.5.2,0,.2.2.5.2,0,.2-.2.5-.2.5,0,0-.2.2-.7.2-.2,0-.7,0-1.5-.2-1.5-.2-2.7-.2-3.7-.2l-4.7.2h-4.2v-.7l3.4-.7c.5-.2,1-.2,1-.5.2-.2.2-.7.2-1.5v-2.5c0-2,0-6.6-.2-13.3v-10.3c0-1.2-.2-2-.5-2.5-.7-.5-2.2-1-4.9-1.5v-.5c0-.1,0-.3.3-.5M524.1,687.6c0-1.7.2-3.4.7-4.9s1.2-3,2.2-4.7,2.2-3,3.7-4.2c1.5-1,3.4-2,6.2-3,1.7-.5,4.2-1,6.9-1,2,0,3.7.2,5.4.7s3.4,1.2,4.9,2c1.5,1,3,2.2,4.4,4.2,1,1.2,1.7,2.7,2.2,4.2.7,2,1,3.9,1,5.9,0,2.5-.2,4.2-.7,5.9-.5,1.5-1.2,3-2.2,4.7-.7,1.2-2.2,2.5-4.4,3.9-1.2,1-3,2-4.9,2.5-2,.7-4.2,1-6.4,1-2.5,0-4.4-.2-6.4-.7-1.7-.5-3.4-1.2-4.7-2-1.2-.7-2.5-2-3.7-3.4-1.2-1.5-2.2-3.2-3-5.2-1-1.4-1.2-3.6-1.2-5.9M542.5,704.4c1.5,0,3-.2,4.7-.7s3-1.2,4.2-2c1.2-1,2.2-2,3-3.2.7-1.2,1.2-3,1.7-4.7.5-2,.7-3.9.7-5.9,0-2.5-.2-4.9-1-7.1-.5-1.7-1.5-3.4-2.7-4.9s-2.7-2.5-4.4-3.2-3.7-1.2-5.7-1.2c-1.7,0-3.2.2-4.7.7s-2.7,1.2-3.9,2c-1,.7-2,2-2.7,3.4-.7,1.5-1.5,3.2-2,4.9s-.7,3.4-.7,4.9.2,3.2.7,4.9c.5,2,1,3.4,1.7,4.9s1.7,2.5,3,3.7c1.2,1,2.5,2,3.7,2.5,1.2.7,2.7,1,4.4,1"/>
  <path class="st1" d="M578.5,704.6v-1.7c2.2-.2,3.7-.7,4.2-1.5.5-.5.7-1.5,1-3.4l.2-9.6.5-9.6v-1c0-2.5-.2-3.9-.5-4.4s-1.5-.7-3.4-1.2c-.5,0-1-.2-1.2-.2v-1.9h2.2l7.9.2h1.9c.2.2.7.7,1,1.5.7,1.2,1.5,3.2,2.7,5.7l.2.7,4.2,9.1c0,.2.2.5.5,1,.2.5.5,1.2.7,1.7s.5,1.2,1,2c.2.7.5,1.2,1,2,.2-.5.5-1,.7-1.5.7-1.7,1.5-3.2,2-4.4,1.2-2.5,2.7-6.2,4.7-11.1.2-.7.7-2,1.5-3.7.7-1.5,1.2-2.5,1.2-2.5.2-.2.5-.2,1-.2h.7c1,0,2,0,3.4-.2,2,0,3.4,0,4.4-.2,1.2,0,1.7-.2,2-.2h.7v1.9c-1.7.2-3,.7-4.2,1.2-.7.2-1,.7-1,1.2v.5l.5,8.1c0,.7.2,4.4.5,11.1,0,1.5.2,3.4.2,5.7v.7c0,.5,0,.7.2.7.2.2,1.7.7,4.9,1.5v1.9c-.5,0-1.7,0-3.7-.2s-3.7-.2-5.4-.2c-2.7,0-5.2,0-7.6.2h-1v-2c.7-.2,1.7-.5,3-.7.7-.2,1.5-.5,1.7-.7s.2-1.2.2-3v-1.5c0-2-.2-4.4-.2-7.9l-.2-8.6c0-1.2,0-2.2-.2-2.7l-6.6,15.3c-.2.2-.5,1-.7,1.5-.5,1-.7,1.5-.7,1.7-1.5,3.2-2.2,5.9-3,7.6-.2.5-.2,1-.7,1.7h-2l-1.5-4.2c-.5-1-1.2-2.7-2.2-4.9-.5-1.2-1-2.2-1.5-3.2-.2-.2-.2-.5-.2-.7l-.2-.7v-.2l-3.9-8.6-2.5-5.2-.2,12.6-.2,8.1c0,1.5.2,2.2.7,3,.5.5,1.7,1,3.2,1.5l1.2.2v2c-1,0-2.2,0-3.4-.2s-2.7-.2-4.7-.2c-.1.1-1.8.1-5,.3M626.5,704.6h.5c1.2,0,2.5,0,3.7-.2l1-.2c4.2.2,6.9.5,7.9.5v-1.9c-1-.2-1.7-.2-2-.2-1.2,0-2-.5-2.5-.7-.2-.2-.5-.5-.5-1,0-.2.2-1,.5-2,1.2-3.4,2-5.4,2.5-6.2h10.1l2,5.2,1,2.7c0,.2.2.5.2.7s0,.5-.2.5-.7.2-1.5.5l-3,.7v1.7h1.2l4.4-.2h3c1.2,0,2.7,0,4.2.2s3,.2,4.4.2v-.5c0-.2,0-.7-.2-1.2-.7-.2-1.7-.5-2.5-.7-.7,0-1.2-.2-1.5-.5-.2,0-.5-.5-.7-1.2-.7-1.5-1.2-2.5-1.5-3.4-.7-1.7-1.2-3-1.5-3.7-.5-1.5-1.2-3.2-2.2-5.4-.7-2.2-1.7-4.4-3-6.9l-4.7-11.1-.2-.5h-2.9l-6.4,16.5-5.4,14c-.5.7-.7,1.2-1,1.5-.2.2-1.2.5-2.5.7-1,.2-1.5.2-1.7.5l1,1.6ZM639,689.6l3.9-10.3c.5,1.2,1.2,2.7,2,4.9.7,2.2,1.5,3.9,2,5.7h-.7c-.5-.3-3-.3-7.2-.3M665.4,702.9v1.4h1.2c1,0,2,0,3.2-.2l3.7-.2h1c.7,0,3,.2,6.9.5h1.7v-2c-1-.5-2.2-.7-3.7-1-.7-.2-1.5-.5-2-.7l.2-4.9v-7.6h1.7c1.2,0,2.2.2,2.7.5.2.2,1,1.2,2,3,2,3.7,3.2,6.4,3.9,8.4.2.7.7,1.7,1.5,3l1,1.7c.2,0,.7,0,1.2-.2,1,0,1.7-.2,2-.2h2.7c.7,0,1.5,0,2.2.2h1l1.5.2h1.2v-.7c0-.2,0-.5-.2-.7-.5-.2-1-.5-2-1s-1.7-.7-2-1c-.2-.2-1-1.5-2-3.2l-4.2-6.9c-.5-.7-1-1.7-1.7-2.7-.2-.5-.7-1-.7-1.2,2.5-.7,4.2-2,5.4-3.4,1.2-1.5,1.7-3.2,1.7-4.9,0-2.5-1-4.7-3.2-6.4-2.2-2-5.2-2.7-8.6-2.7-2.2,0-4.4,0-6.6.2l-3.4.2h-1.5s-.7,0-2-.2h-2.5c-.7,0-1.5,0-2.5.2v1.9c.5,0,1.5.2,3,.2l1.5.2c0,1,.2,3.4.2,7.1v21c0,.2,0,.5-.2.7-.7.2-1.5.5-2.5.5-1.6.7-2.4.7-2.8.9M677.4,685.7v-13.3c.5,0,1.2-.2,2.2-.2,1.7,0,3,.2,3.7.5,1,.2,2,1,2.5,1.5s.7,1.2,1.2,2.2c.2,1,.5,2,.5,3.2,0,1.7-.5,3.2-2,4.4-1.2,1-3.4,1.7-6.4,1.7h-1.7M703.5,704.6c.2,0,1.2,0,2.2-.2,1.7-.2,3.2-.2,4.2-.2h4.7c2.2.2,3.2.2,3.7.2h2.2v-2.2c-1,0-1.5-.2-1.5-.2-1,0-2-.2-3-.5,0-.2-.2-.5-.2-.5v-26.1c0-1,0-1.5.2-2,.5-.2,1.5-.5,2.2-.7,1-.2,1.7-.5,2.5-.7v-1.9c-.2,0-1.2,0-2.5.2-2.2,0-3.9.2-5.2.2h-1.7l-7.6-.2v2.5h1c1.7,0,2.7.2,3.4.7,0,.5.2.7.2.7v1.2l.2,3v4.9s0,2-.2,5.4v10.9c0,1-.2,1.7-.5,2.2-.5.2-1.5.5-2.5,1-.7.2-1.5.2-1.7.5v2h-.1v-.2ZM745.6,670.9c-1.7-.5-3-1-3.9-1.2-1.7-.2-3-.5-3.7-.5-3.9,0-6.9,1-8.9,3s-3,4.4-3,7.1c0,1.5.2,3,1,4.4.7,1.5,1.7,2.7,3,3.7,1.2,1,3.4,2,6.9,3.2,3.2,1.2,5.2,2,6.2,2.7,1.2,1.2,1.7,2.5,1.7,3.7,0,1-.2,2-1,3-.7,1-1.7,1.7-2.7,2-1.2.5-2.2.5-3.2.5s-2-.2-3-.5c-1-.2-1.7-.7-2.5-1.5-.7-.5-1.2-1.2-1.7-2.2-.2-.5-.7-1.7-1.7-3.7h-2.5v3.5c0,2.2.2,3.4.2,3.7v.2c0,.2.2.5.2.5.2.2.7.5,1.7.7l3.2,1c1.7.2,3.2.5,4.4.5,2,0,3.4-.2,4.7-.5,1.2-.2,2.5-.7,3.4-1.5,1.2-.7,2-1.2,2.5-2,.7-.7,1.2-1.5,1.7-2.5.7-1.7,1-3.2,1-4.9,0-1.5-.2-3-.5-3.9-.5-1-1.2-2.2-2.2-3.2-.7-.7-2-1.7-3.4-2.2-1.5-.7-3-1.2-3.9-1.5-3.2-1-5.4-2-6.4-3s-1.5-2.2-1.5-3.2c0-1.2.5-2.5,1.5-3.4,1-1,2.5-1.5,4.2-1.5,2,0,3.4.7,4.7,2.2.7.7,1.5,2.5,2.2,4.7h2.4v-1c0-1,0-2.5-.2-4.2-.6-.7-.6-1.7-.9-2.2M753.7,668.4c-.2.2-.2,1-.7,2-1,3.4-1.7,5.7-2.2,6.9.2.2.7.7,1.5,1,.2,0,.5-.2,1-.7,1.5-2,2.7-3.2,3.4-3.7.5-.2,1.7-.5,3.4-.5h5.4q.2,0,.2.2l.2.2c0,.5.2,2.2.2,5.2l.2,10.1c0,4.7,0,8.1-.2,10.3,0,.5-.2,1-.2,1.2-.7.2-2,.7-3.9,1.2-1,.2-1.7.7-2.2,1.2v1.4h2c2.7-.2,4.2-.2,4.7-.2,3.4,0,5.7,0,6.9.2s3,.2,4.7.2h1v-.7c0-.2,0-.5-.2-1.2-.5-.2-1-.2-1.5-.5-1.2-.2-1.7-.5-2-.5-.7,0-1.2-.2-1.5-.2-.2-.7-.2-1.5-.2-2.7v-23.1c0-.5,0-1,.2-1.7h2c3.4,0,5.2,0,5.7.2.2,0,.5.2.7.5.2.2.5,1,1,2.2s1,2.2,1.5,3c.5,0,1.2-.2,2-.5v-10.9h-1.9c0,.2-.2.5-.2.7-.2.7-.5,1.2-.7,1.2l-1.5.2h-25.6c-.2-.2-.7-.7-1.2-1.7,0,0,0-.2-.2-.5h-1.7s-.1,0-.1,0ZM783.8,704.6h.5c1.2,0,2.5,0,3.7-.2l1-.2c4.2.2,6.9.5,7.9.5v-1.9c-1-.2-1.7-.2-2-.2-1.2,0-2-.5-2.5-.7-.2-.2-.2-.5-.2-1,0-.2.2-1,.5-2,1.2-3.4,2-5.4,2.5-6.2h10.1l2.2,5.2,1,2.7c0,.2.2.5.2.7s0,.5-.2.5-.7.2-1.5.5l-3,.7v1.7h1.2l4.4-.2h3c1.2,0,2.7,0,4.2.2s3,.2,4.4.2v-.5c0-.2,0-.7-.2-1.2-.7-.2-1.7-.5-2.5-.7-.7,0-1.2-.2-1.5-.5-.2,0-.5-.5-.7-1.2-.7-1.5-1.2-2.5-1.5-3.4-.7-1.7-1.2-3-1.5-3.7-.5-1.5-1.2-3.2-2.2-5.4-.7-2.2-1.7-4.4-3-6.9l-4.7-11.1-.2-.5h-2.9l-6.4,16.5-5.4,14c-.5.7-.7,1.2-1,1.5-.2.2-1.2.5-2.5.7-.7.2-1.5.2-1.7.5l.5,1.6ZM796.3,689.6l3.9-10.3c.5,1.2,1.2,2.7,2,4.9s1.5,3.9,2,5.7h-.7c-.5-.3-3-.3-7.2-.3"/>
  <rect class="st0" x="89.6" y="631.3" width="1020.8" height="2.5"/>
  <path class="st1" d="M679.9,230c7.6-2.7,43.1-5.7,43.1,16,0,6.6-4.7,11.1-11.6,11.3-15.3.2-9.1-17.7-9.6-17.7-36.7,0-21.9,78.8-20.4,91.1-.2,9.8-6.2,13-13.3,13.3-6.4.2-9.8-2.7-11.6-7.9-2.7-7.1-3.2-77.3,32.7-100.7-9.8,0-39.1,19.4-51.9,58.6.7,1.7,1.2,21.4.2,29-.2,10.3-3,17.2-12.6,17.2-7.9,0-13.3-5.7-12.3-17.2,1.7-20.7,9.1-81-11.8-90.8-22.4,8.4-11.6,85.7-11.6,90.8.2,8.1-1.5,17.2-13,17.2-12.6,0-12.3-8.1-12.6-17.5,0-8.1.5-22.2,1.2-28.8-17.2-41.4-42.1-58.6-51.4-58.6,35.9,23.4,35,93.5,32.2,100.9-1.7,5.2-5.2,8.1-11.6,7.9-7.1-.5-13-4.2-13.3-13.5,1.2-12.1,16-90.8-20.7-90.8-.5,0,5.9,18-9.6,17.7-6.9-.2-11.6-4.7-11.6-11.3,0-21.7,35.4-19,43.1-16,18,6.6,34.7,25.6,44.3,48.2,3.9-23.4,17.5-50.5,34.5-53.4,17,2.7,30,30,34.7,52.9,9.3-21,21.8-37.8,44.5-47.9"/>
  <path class="st1" d="M523.1,359c0-6.2,5.2-11.1,11.1-11.1,6.2,0,11.1,4.9,11.1,11.1s-5.2,11.1-11.1,11.1c-6.2.2-11.1-4.7-11.1-11.1"/>
  <path class="st1" d="M564.4,356.3c0-6.2,4.9-11.1,11.1-11.1s11.1,4.9,11.1,11.1-4.9,11.1-11.1,11.1c-6.1.2-11.1-4.7-11.1-11.1"/>
  <path class="st1" d="M614.4,355.3c0-6.2,5.2-11.1,11.1-11.1,6.2,0,11.1,4.9,11.1,11.1s-5.2,11.1-11.1,11.1c-5.9-.2-11.1-5.2-11.1-11.1"/>
  <path class="st1" d="M657,358.5c0-6.2,4.9-11.1,11.1-11.1s11.1,4.9,11.1,11.1-5.2,11.1-11.1,11.1c-6.2.2-11.1-4.9-11.1-11.1"/>
  <path class="st1" d="M712.4,487c-72.4,6.2-92.1-66.2-96-94-5.7,8.9-9.8,18.7-12.6,26.3,11.3,29.8,18,65-2.7,68.9v-6.2c2.7-.7,8.9-3.9,7.4-16,0,0-2.2-16.7-6.9-34.5,0,0,0-1.2-.5-3.2v-16.5c5.7-13.5,11.8-25.4,15-31.8.2-.7.7-1.7,1.2-2.2l-.2-.2.2-.2c0,.2-.2.2-.2.2,5.7-8.4,21.7-8.1,21.7,9.6,0,45.8,19.9,89.4,49.5,91.8-20.9-11.3-34.2-73.6-34.2-91.1-.5-19,28.1-19.9,27.6,3.2-.2,21.9-7.9,84.4,29.3,88.6.7-4.2,4.2-7.1,8.6-7.1,2.7,0,5.2,1.2,6.6,3.2,22.2-14.5,11.6-33.5,3.2-33.7-2.7-.2-6.6,2.5-6.6,6.4.7,7.6,11.3,5.7,11.1,6.2-2.2,3.7-6.2,5.7-12.6,4.7-22.2-8.6,6.2-48,30.5-11.8-1-28.1-51.7-37.4-51.7-9.6-13.5-8.1-.7-27.3,22.2-25.6-13.5-11.1-17.2-22.4-15.5-28.1,1.5-7.4,8.6-11.1,13.8-10.1,9.8,2,15,17.7,2.2,20.4,9.4-24.4-18.2-16.2-8.6-.7,13.5,21.4,38.4,19,43.3,50.5,7.1-18.2-5.4-45.8-21.7-68.9-11.1-15.8-16-29.3-14.5-35.7.7-3.7,5.2-7.1,9.6-7.6,4.2,0,8.4,3,8.6,7.1,1.2,4.2-2,10.1-7.6,10.3,8.1-15.5-7.1-13.5-5.7-4.2,1.2,14,47,59.3,39.1,93.5.2-.7,1.2-3.4,2.2-5.9,8.4-19.4-3.9-40.9-8.4-66.5.2-10.8,13.8-13.5,20.4-5.4,6.4,6.6,1.7,16.5-2.5,15.3,1.7-6.9,1.2-10.1-1.7-14-5.2-4.4-13,.2-11.3,5.7,1.7,9.8,11.6,31,11.1,51.9,6.4-12.1,13-20.9,24.4-19.9-20.4,3.7-14.3,75.3-71.6,83.2-1,3.7-4.4,6.4-8.6,6.4-2.7,0-4.9-1.2-6.6-3.2v-.2q.4.7-.3.7M601.4,488.2l-.2.2c-22.6-3.2-13.5-38.6-2-68.9-2.7-8.1-7.4-19.2-14-28.1-3.2,25.8-21.9,103.4-97,96.2-.5-.2-1.2-.2-1.7-.2v.2c-1.7,1.7-4.2,3.2-6.6,3.2-3.9,0-7.4-2.7-8.6-6.4-57.4-8.1-51-79.3-71.4-83.2,11.1-1,18,7.9,24.1,19.9-.5-20.9,9.6-42.1,11.3-51.9,1.5-5.7-6.4-10.1-11.3-5.7-3,3.9-3.7,7.1-1.7,14-4.2,1.2-9.1-8.6-2.7-15.3,6.6-8.1,20.4-5.4,20.4,5.4-4.2,25.4-16.7,46.8-8.1,66.5,1,2.5,1.7,5.2,2.2,5.9-8.1-34.2,37.7-79.3,39.1-93.5,1.2-9.6-14-11.3-5.9,4.2-5.7-.2-8.6-6.4-7.4-10.3.2-4.2,4.2-7.1,8.6-7.1,4.7.5,8.9,4.2,9.6,7.6,1.7,6.4-3.4,19.9-14.5,35.7-16.2,22.9-28.8,50.5-21.4,68.9,4.7-31.8,29.8-29,43.1-50.7,9.6-15.5-17.7-23.4-8.6.7-12.8-2.7-7.6-18.5,2.2-20.4,5.2-1,12.3,2.7,13.5,10.1,1.7,5.7-2.2,17-15.5,28.1,22.9-1.7,35.4,17.5,22.2,25.6.2-27.8-50.7-18.5-51.7,9.6,24.1-36.2,52.7,3.2,30.5,11.8-6.4,1-10.3-.7-12.6-4.7-.2-.5,10.3,1.5,11.1-6.2-.2-3.9-4.2-6.6-6.6-6.4-8.4.2-19,19.2,3.2,33.7,1.7-1.7,4.2-3.2,6.6-3.2,4.2,0,7.9,3.2,8.6,7.4.2-.2.2.2.7,0,37.9-3.2,30.3-66.5,29.8-88.6-.5-23.4,28.1-22.4,27.8-3.2,0,17.5-13,79.8-34.2,91.1,29.5-2.2,49.7-45.8,49.7-91.8,0-17.7,16-18,21.4-9.6,4.2,5.7,11.1,18.7,17.5,34.5l.2-.7v16.5c-.2-.5-.2-1-.2-1.5-.7,2.7-1.5,4.7-1.5,4.7-4.7,17.7-5.7,34.5-5.7,34.5-.7,4.9-.5,15.5,7.1,16h.2v5.4h.4Z"/>
  <polygon class="st1" points="595.2 111.6 585.6 104.7 597.7 104.7 601.4 93.7 605 104.7 616.9 104.7 607.3 111.6 611 122.7 601.4 115.8 591.5 122.7 595.2 111.6"/>
  <polygon class="st1" points="595.2 187.4 585.6 180.5 597.7 180.5 601.4 169.2 605 180.5 616.9 180.5 607.3 187.4 611 198.5 601.4 191.6 591.5 198.5 595.2 187.4"/>
  <polygon class="st1" points="555.1 116.1 545.5 109.2 557.3 109.2 561 97.8 564.9 109.2 576.5 109.2 567.1 116.1 570.6 127.1 561 120.2 551.4 127.1 555.1 116.1"/>
  <polygon class="st1" points="555.1 184 545.5 177.1 557.3 177.1 561 166 564.9 177.1 576.5 177.1 567.1 184 570.6 195.1 561 188.2 551.4 195.1 555.1 184"/>
  <polygon class="st1" points="517.2 125.7 507.6 118.8 519.4 118.8 523.1 107.7 527 118.8 538.8 118.8 529.2 125.7 532.7 136.7 523.1 129.8 513.5 136.7 517.2 125.7"/>
  <polygon class="st1" points="517.2 174.6 507.6 167.7 519.4 167.7 523.1 156.7 527 167.7 538.8 167.7 529.2 174.6 532.7 185.7 523.1 178.8 513.5 185.7 517.2 174.6"/>
  <polygon class="st1" points="635.6 116.1 626 109.2 637.8 109.2 641.5 97.8 645.2 109.2 657 109.2 647.4 116.1 651.1 127.1 641.5 120.2 631.9 127.1 635.6 116.1"/>
  <polygon class="st1" points="635.6 184 626 177.1 637.8 177.1 641.5 166 645.2 177.1 657 177.1 647.4 184 651.1 195.1 641.5 188.2 631.9 195.1 635.6 184"/>
  <polygon class="st1" points="673.5 125.7 663.9 118.8 675.7 118.8 679.4 107.7 683.1 118.8 694.9 118.8 685.3 125.7 689 136.7 679.4 129.8 669.8 136.7 673.5 125.7"/>
  <polygon class="st1" points="673.5 174.6 663.9 167.7 675.7 167.7 679.4 156.7 683.1 167.7 694.9 167.7 685.3 174.6 689 185.7 679.4 178.8 669.8 185.7 673.5 174.6"/>
  <polygon class="st1" points="702 150.3 692.4 143.4 704.5 143.4 708.2 132.3 711.9 143.4 723.7 143.4 714.1 150.3 717.8 161.3 708.2 154.7 698.3 161.3 702 150.3"/>
  <polygon class="st1" points="488.4 150.3 478.8 143.4 490.8 143.4 494.5 132.3 498.2 143.4 510 143.4 500.4 150.3 504.1 161.3 494.5 154.7 484.7 161.3 488.4 150.3"/>
  <path class="st1" d="M615.1,588.9l.2-3.4c3.9-.5,6.6-1.2,7.6-2.5.7-.7,1.2-2.7,1.7-6.2l.7-17.2.7-17.7v-2c0-4.7-.2-7.1-.7-7.9-.5-.7-2.7-1.5-6.2-2-1-.2-1.7-.2-2.2-.5v-3.5c1.2,0,2.7-.2,4.2-.2l14.3.5h3.4c.5.7,1.2,1.5,1.7,2.7,1.2,2.5,2.7,5.9,4.7,10.3l.5,1.2,7.6,16.5c.2.5.5,1,.7,1.7.5,1.2,1,2.2,1.5,3.4.5,1,1,2.2,1.7,3.4.5,1.2,1.2,2.5,1.5,3.4.5-.7,1-1.7,1.2-2.7,1.2-3,2.5-5.7,3.7-8.1,2.2-4.4,5.2-11.1,8.6-20.2.5-1.5,1.5-3.7,3-6.6,1.2-3,2-4.4,2.2-4.7.2-.2,1-.5,1.7-.5h1.5c1.7,0,3.7-.2,6.2-.2,3.4,0,6.2-.2,8.1-.2,2-.2,3.2-.2,3.4-.2h1.2v3.7c-3,.5-5.7,1.2-7.4,2-1.5.7-2,1.5-2,2.5v.7l.7,15c0,1.5.2,8.1.7,20.4,0,2.7.2,6.2.7,10.3v1.2c0,.7.2,1.2.5,1.5.2.2,3.2,1.2,8.9,2.7v3.2c-.7,0-3.2-.2-6.6-.5-3.4-.2-6.9-.5-9.8-.5-4.7,0-9.4.2-13.8.5-.5,0-1.2,0-1.7.2v-3.4c1.2-.5,3.2-1,5.4-1.2,1.5-.2,2.5-.7,3-1.2s.7-2.5.7-5.2v-2.7c-.2-3.4-.2-8.1-.2-14.3l-.7-17.2c0-2.5-.2-4.2-.2-5.2l-11.9,28c-.2.7-.7,1.7-1.2,2.7-.7,1.5-1.2,2.7-1.5,3.2-2.5,5.9-4.2,10.6-5.2,13.8-.2.7-.7,2-1.2,3.2h-3.7l-2.7-7.4c-.7-2-2.2-4.9-3.9-8.9-1-2.2-2-4.2-2.7-5.7-.2-.5-.5-1-.7-1.2l-.5-1.2q0-.2-.2-.5l-7.4-15.8-4.4-9.6-.2,23.1-.2,15c0,2.5.5,4.2,1.5,5.2s3,2,5.9,2.7l2.5.5v3.4c-2,0-3.9-.2-6.2-.5s-4.9-.5-8.6-.5c-1.2,1.2-4.4,1.2-10.1,1.4"/>
  <path class="st1" d="M702.8,588.9v-3.4c.5-.2,1.7-.5,3.2-.7,2.5-.5,3.9-1,4.4-1.2.5-.5,1.2-1.2,2-2.7l9.8-25.8,11.6-30.3h5.4l.5,1,8.4,20.2c2,4.2,3.7,8.4,5.2,12.3,1.5,3.9,3,7.4,3.9,9.8.7,1.5,1.5,3.9,2.7,6.9.5,1.7,1.5,3.7,2.7,6.2.7,1.2,1.2,2.2,1.5,2.5.5.5,1.5.7,3,1,1.2.2,2.7.5,4.2,1.2.2,1,.2,2,.2,2.5v1c-2.5,0-5.2-.2-7.9-.2-3-.2-5.4-.2-7.9-.2h-5.7l-8.4.5h-2.5c0-1.2,0-2.2.2-3.2l5.4-1.2c1.7-.5,2.5-.7,2.7-1,.2-.2.5-.7.5-1.2s0-.7-.2-1.2l-2-4.7-3.9-9.6h-18.7c-.7,1.5-2.2,5.4-4.2,11.3-.7,1.7-1,3-1,3.4,0,.7.2,1.5.7,1.7.7.7,2.2,1,4.4,1.2.2,0,1.5.2,3.4.5v3.7c-2,0-6.9-.2-14.5-.7l-2,.2c-2.5.5-4.7.5-6.9.5l-.2-.3h0ZM725.7,561.6c7.6,0,12.1.2,13.5.2h1.2c-1-3-2.2-6.2-3.7-10.1s-3-6.9-3.7-8.9l-7.3,18.8Z"/>
  <path class="st1" d="M773.2,586c.7-.5,2.2-.7,3.7-1,1.7-.2,3.2-.5,4.4-1,.2-.7.2-1.2.2-1.5v-15.5l.2-5.9v-7.1c0-3.4.2-6.9.2-9.8,0-6.6,0-11.1-.2-13l-3-.5c-2.7-.2-4.4-.2-5.2-.5v-3l.2-.5c1.7-.2,3.2-.5,4.4-.5h4.4c2.5.2,3.7.2,3.7.2l2.7-.2,6.2-.2c3.7-.2,7.9-.5,12.1-.5,6.6,0,12.1,1.7,16,5.2,3.9,3.4,5.9,7.4,5.9,11.6,0,3.2-1,6.2-3.2,8.9s-5.4,4.7-9.8,6.2c.5.7,1,1.5,1.5,2.5,1.5,2,2.5,3.7,3.2,4.9l7.9,12.6c2,3.4,3.2,5.4,3.9,5.9.5.5,1.7,1.2,3.7,2,1.5.5,2.5,1,3.4,1.7.2.5.2,1,.2,1.5v1.2h-2.2l-2.5-.2h-2c-1-.2-2.2-.2-3.9-.2h-4.9c-.5,0-1.5,0-3.4.2-1,0-1.5.2-2,.2l-1.7-3.2c-1.5-2.5-2.2-4.2-3-5.4-1.5-3.2-3.9-8.1-7.4-15-1.7-3.2-2.7-4.9-3.4-5.4-1-.7-2.7-1-4.9-1h-3.2c0,1-.2,2-.2,3.4l.2,10.8-.2,9.1c1,.5,2.2,1,3.7,1.2,2.5.5,4.7,1.2,6.4,1.7,0,1.5,0,2.7-.2,3.7h-3.2c-6.9-.5-11.1-1-12.6-1h-1.7l-6.6.5c-2,.2-3.9.2-5.7.2h-2v-1.5c-.1-.6-.1-1.1-.1-1.8M795.1,554.5h3.4c5.4,0,9.4-1,11.8-3,2.2-2,3.4-4.7,3.4-7.9,0-2-.2-3.9-.7-5.7-.5-1.7-1.2-3.2-2.2-3.9-1.2-1.2-2.7-2.2-4.7-3-1.5-.5-3.7-.7-6.9-.7-1.5,0-2.7,0-3.9.2v7.6l-.2,3.9v5.4c0,1.5,0,3.4-.2,5.9v1h.2v.2Z"/>
  <path class="st1" d="M842.3,589.2v-3.4c.7-.2,1.7-.5,3.2-.7,2-.5,3.7-1,4.7-1.5.5-1,1-2.5,1-4.2v-19.5c.2-6.4.5-9.8.5-9.8v-6.4l.2-2.7-.2-5.7v-2.2c0-.2-.2-.7-.2-1.5-1.2-.5-3.4-1-6.4-1.2-.7,0-1.2,0-1.7-.2v-4.2l14,.5h3.2c2,0,4.9,0,9.1-.5,2.5-.2,3.9-.2,4.4-.2v3.7c-1.2.5-2.7,1-4.4,1.2-1.7.5-3,.7-4.2,1.2-.2.7-.2,2-.2,3.7,0,1.5,0,2.5.2,3.4,0,5.4-.2,9.8-.2,12.6v12.8l-.3,6.6.2,9.8-.2,1.7c0,.2,0,.7.2,1.2,2,.5,3.7.7,5.4,1,.2,0,1.2.2,3,.5,0,1,.2,1.7.2,2.5v1.7h-2.7c-.2,0-.7,0-1.2-.2-.5,0-2.7-.2-6.4-.7h-8.6c-1.7,0-4.2.2-7.4.5-3.2-.1-4.7-.1-5.2.2"/>
  <path class="st1" d="M918.4,527.4c.2,1,.5,2.7,1,4.9.5,3.4.5,5.9.5,7.9,0,.5,0,1.2-.2,2l-.5.2-3.4-.5h-.5c-1.5-4.4-3-7.1-4.2-8.6-2.5-2.7-5.4-3.9-8.6-3.9s-5.7.7-7.6,2.5c-2,1.7-2.7,3.7-2.7,6.2,0,2,1,4.2,2.7,5.9,1.7,2,5.7,3.7,11.6,5.4,2,.5,4.4,1.5,7.1,2.7,2.7,1.2,4.9,2.7,6.4,4.2,2,2,3.2,3.9,3.9,5.9s1.2,4.2,1.2,6.9c0,3-.5,6.2-1.7,9.1-.5,1.5-1.7,3-3,4.4-1,1-2.5,2.2-4.4,3.4-2,1.2-4.2,2.2-6.4,3-2.2.5-4.9,1-8.4,1-2.2,0-4.9-.2-8.1-1l-5.9-1.7c-1.7-.5-2.7-.7-3-1.2-.2-.2-.2-.5-.5-1v-.5c0-.2,0-2.5-.2-6.6v-6.1h4.4c1.5,3.7,2.7,5.7,3,6.6,1,1.7,2.2,3,3.4,3.9,1.2,1,2.7,2,4.4,2.5s3.4,1,5.4,1c1.7,0,3.7-.5,5.9-1,2-.7,3.7-2,5.2-3.7,1.2-1.7,2-3.4,2-5.4,0-2.5-1.2-4.7-3.4-6.6-1.5-1.2-4.9-3-11.1-5.2-5.9-2.2-10.1-3.9-12.6-5.7-2.2-1.7-4.2-3.9-5.4-6.6-1.2-2.7-2-5.4-2-8.1,0-5.2,2-9.6,5.7-13.3s9.1-5.4,16.5-5.4c1.5,0,3.9.2,6.9.7,1.2.1,3.7.8,6.6,1.8"/>
  <path class="st1" d="M1098.4,527.4c.2,1,.7,2.7,1,4.9.5,3.4.5,5.9.5,7.9,0,.5,0,1.2-.2,2l-.5.2-3.4-.2h-.5c-1.5-4.4-3-7.1-4.2-8.6-2.5-2.7-5.4-3.9-8.6-3.9s-5.7.7-7.6,2.5c-1.7,1.7-2.7,3.7-2.7,6.2,0,2,1,4.2,2.7,5.9,1.7,2,5.7,3.7,11.6,5.4,2,.5,4.4,1.5,7.1,2.7s4.9,2.7,6.4,4.2c2,2,3.2,3.9,3.9,5.9.7,2,1,4.2,1,6.9,0,3-.5,6.2-1.7,9.1-.5,1.5-1.7,3-3,4.4-1,1-2.5,2.2-4.4,3.4-2,1.2-4.2,2.2-6.4,3-2.2.5-4.9,1-8.4,1-2.2,0-4.9-.2-8.1-1l-5.9-1.7c-1.7-.5-2.7-.7-3.2-1.2-.2-.2-.2-.5-.5-1v-.5c0-.2,0-2.5-.2-6.6v-6.1h4.4c1.5,3.7,2.5,5.7,3,6.6,1,1.7,2.2,3,3.2,3.9,1.2,1,2.7,2,4.4,2.5,1.7.5,3.4,1,5.4,1,1.7,0,3.7-.5,5.9-1,2.2-.7,3.7-2,5.2-3.7,1.2-1.7,2-3.4,2-5.4,0-2.5-1.2-4.7-3.4-6.6-1.5-1.2-4.9-3-11.1-5.2-5.9-2.2-10.1-3.9-12.6-5.7-2.2-1.7-4.2-3.9-5.4-6.6-1.2-2.7-2-5.4-2-8.1,0-5.2,1.7-9.6,5.7-13.3,3.7-3.7,9.1-5.4,16.5-5.4,1.5,0,3.9.2,6.9.7,1.5-.2,4,.5,7.2,1.5"/>
  <path class="st1" d="M932.9,523.2h3c.2.2.5.7.5.7,1,1.5,1.7,2.7,2,3.2.5,0,2.7.2,6.6.2h6.6l1-.2h32l3-.5c.5-.2,1-1,1.5-2.5,0-.2.2-.7.5-1.2h3.7v17c0,1,0,1.5-.2,2.2-1.2.5-2.5.7-3.4.7-.7-1.2-1.7-3.2-2.7-5.4-1-2.5-1.7-3.7-2-3.9-.5-.5-.7-.7-1.5-.7-.7-.2-4.2-.2-10.3-.2-1,0-2,0-3.4.2-.2,1.2-.2,2.2-.2,3.2v20.9l.2,15.5v6.4c0,2.2.2,3.9.5,5.2.5.2,1.5.5,3,.7.2,0,1.5.2,3.7.7,1,.2,1.7.5,2.5.7.2,1.2.2,2,.2,2.2s0,.7-.2,1.2h-1.7c-3.4,0-6.2-.2-8.6-.2-2.5-.2-6.6-.5-12.8-.5-1,0-3.9.2-8.6.5-2,.2-3,.2-3.7.2v-2.9c.7-1,2-1.7,3.9-2.2,3.4-.7,5.7-1.5,7.1-2.2.2-.5.5-1.5.5-2.5.2-3.9.2-10.1.2-18.7l-.2-18.5c0-5.2,0-8.1-.2-9.1,0-.2-.2-.5-.2-.7-.2-.2-.5-.2-.7-.2-1-.2-4.2-.2-9.8-.2-3,0-5.2.2-6.2,1-1.5.7-3.4,3-6.4,6.6-.7,1-1.5,1.5-1.7,1.5-1.5-.7-2.5-1.5-3-2,1-2.2,2.5-6.4,4.2-12.8.8-1.4,1.1-2.7,1.3-3.4"/>
  <path class="st1" d="M987.3,588.9v-3.4c.7-.2,1.7-.5,3.2-.7,2.5-.5,3.9-1,4.4-1.2.5-.5,1.2-1.2,2-2.7l9.8-25.8,11.6-30.3h5.2l.5,1,8.4,20.2c2,4.2,3.7,8.4,5.2,12.3,1.5,3.9,2.7,7.4,3.9,9.8.7,1.5,1.5,3.9,2.7,6.9.5,1.7,1.5,3.7,2.7,6.2.5,1.2,1.2,2.2,1.5,2.5.5.5,1.5.7,3,1,1.2.2,2.7.5,4.2,1.2.2,1,.2,2,.2,2.5v1c-2.5,0-5.2-.2-7.9-.2-3-.2-5.4-.2-7.9-.2h-5.7l-8.4.5h-2.5c0-1.2,0-2.2.2-3.2l5.4-1.2c1.7-.5,2.5-.7,3-1,.2-.2.5-.7.5-1.2s0-.7-.2-1.2l-2-4.7-3.7-9.6h-18.6c-.7,1.5-2.2,5.4-4.2,11.3-.7,1.7-1,3-1,3.4,0,.7.2,1.5.7,1.7.7.7,2.2,1,4.2,1.2.2,0,1.5.2,3.4.5v3.7c-2,0-6.9-.2-14.5-.7l-2,.2c-2.5.5-4.7.5-6.9.5l-.4-.3h0ZM1010.2,561.6c7.6,0,12.1.2,13.5.2h1.2c-1-3-2.2-6.2-3.7-10.1s-3-6.9-3.9-8.9l-7.1,18.8Z"/>
  <path class="st1" d="M148.7,529.6c.5,2.5.5,5.2.5,7.6v2.2c-.5,0-.7.2-1,.2h-.7c-1.2-3.7-3.7-6.6-6.6-8.9-3.2-2-6.9-3-11.6-3-2.5,0-4.4.2-6.2.7-3,1-5.4,2.5-7.6,4.2s-4.2,3.9-5.7,6.4-2.7,5.4-3.7,8.9c-1,3.4-1.2,7.1-1.2,10.6,0,6.9,1,12.8,3.2,17.2s4.9,7.9,8.6,9.6c3.7,2,7.4,3,11.1,3h2.2c2.7-.2,4.4-.7,5.4-1,2.5-.7,4.4-1.5,5.9-2.5s3-2.2,4.4-3.9,2.7-3.7,3.7-5.9l.5-.2c.2,0,.5,0,.7.2v1.5c-1.5,5.4-2.5,9.4-3,11.3-.5.2-1.2.2-2,.5-3.7,1.2-8.9,2-15.3,2-5.2,0-8.9-.2-11.6-1-2.5-.7-5.4-1.7-8.4-3.2s-5.7-3.4-7.9-5.9c-2.2-2.5-4.2-5.4-5.4-9.4-1.5-3.7-2-7.9-2-12.1s.5-7.9,1.7-10.8c1-3.2,2.7-6.2,5.2-9.4,2.2-3.2,5.2-5.9,8.1-7.9,3.2-2.2,6.6-3.7,10.3-4.4,2.7-.5,6.4-1,11.3-1,3.7,0,6.9.5,10.1,1.5,3.8,1.2,6,2.2,7,2.9"/>
  <path class="st1" d="M158.5,558.2c0-3.2.5-6.2,1.2-8.9s2.2-5.4,3.9-8.4c2-3,4.2-5.7,6.9-7.6s6.4-3.9,11.1-5.4c3.2-1,7.6-1.5,12.6-1.5,3.4,0,6.6.5,10.1,1.5,3.2,1,6.2,2.2,8.9,3.7,2.7,1.7,5.4,4.2,8.1,7.4,1.7,2.5,3.2,4.9,4.2,7.6,1.2,3.4,2,7.1,2,11.1,0,4.2-.5,7.9-1.2,10.6-.7,3-2.2,5.7-4.2,8.4-1.5,2.2-4.2,4.7-7.9,7.4-2.5,2-5.7,3.4-9.1,4.4-3.7,1.2-7.6,1.7-11.8,1.7s-8.1-.5-11.6-1.5c-3.4-1-6.2-2.2-8.4-3.7s-4.7-3.4-6.9-6.4c-2.5-2.7-4.2-5.9-5.4-9.4-2-3.2-2.5-6.9-2.5-11M192.2,588.4c2.7,0,5.7-.5,8.6-1.2,3-.7,5.4-2,7.9-3.7,2.2-1.7,4.2-3.7,5.4-6.2,1.2-2.2,2.2-5.2,3.2-8.6.7-3.4,1.2-7.1,1.2-10.6,0-4.4-.7-8.9-2-13-1-3.2-2.7-6.2-4.9-8.9s-4.9-4.7-8.1-5.9c-3.2-1.5-6.6-2.2-10.3-2.2-3,0-5.9.5-8.6,1.5-2.7,1-5.2,2.2-6.9,3.7s-3.4,3.7-5.2,6.4c-1.5,2.7-2.7,5.9-3.4,9.1-.7,3.4-1.2,6.4-1.2,8.9,0,2.7.5,5.7,1.2,9.1.7,3.4,2,6.4,3.2,8.9,1.5,2.5,3.2,4.7,5.2,6.6,2,2,4.4,3.4,6.9,4.4,2.2,1.2,4.9,1.7,7.8,1.7"/>
  <path class="st1" d="M231.9,589.7c0-.5.2-1,.5-1.2,2.5-.7,4.9-1.2,7.4-1.5,1.5-.2,2.7-.5,3-1,.2-.5.5-2,.5-4.7l.2-12.8v-35.7c0-.2-.2-.7-.5-1.2-1-.5-1.5-.7-2.2-.7-.5-.2-3.2-.5-7.6-1.5v-1.4h3l7.4.2h10.1l3.9-.2c2.7,0,4.4,0,5.7.2,0,.5,0,1.2-.2,2-.5,0-2,.2-5.2.2-3,0-4.7.2-5.2.5-.7.5-1.2,1.7-1.2,3.9v34.5l-.2,13.8v3c0,1,.2,1.5.5,1.7h10.3l8.4-.2c2.2,0,3.7-.2,4.7-.7s2.5-1.5,4.7-3.2c1.2-1.2,2.5-2.5,3.2-3.7.2-.2.5-.7.7-1.2.5-.7,1.5-2.5,2.5-5.2h1.7c-.2,1.2-.5,2.2-.7,3.2-1,4.7-1.5,8.4-2,11.3,0,.7,0,1.2-.2,1.7l-18.2-.5c-15.8,0-24.9.2-27.8.5h-7.2v-.1Z"/>
  <path class="st1" d="M290.4,588.7c.2-.2.5-.5.7-.5.5-.2,1.5-.2,2.7-.5,3.2-.2,5.2-.5,5.9-1,.5-.7.7-1.5.7-2.7v-34l-.2-14c0-3.2-.2-5.2-.7-5.7-.5-.7-2.2-1-5.2-1-1.2,0-2.5-.2-3.2-.2-.5-.2-.7-.5-.7-1,0-.2,0-.5.2-1,.2-.2.5-.2.7-.2h1.7c2,.2,3.9.2,5.9.2h3.7l8.6.2c4.2,0,7.6,0,10.1-.2,2.5,0,3.9-.2,4.9-.2.7,0,2.7,0,5.7.2h6.9l.7.2,3.9-.2.5.2c.2.2.2.5.2.7,0,.5,0,1.2-.2,2-.2,1-.2,1.5-.2,1.7,0,3.4,0,6.2.2,8.6q0,.2-.2.5c-.2,0-.7,0-1-.2-.2-.7-.7-1.7-1.5-3.2-.5-1.5-1.5-3.4-2.7-5.4-.7-1.5-1.5-2.2-2-2.5-.5-.2-1.5-.5-3-.5h-6.6l-14,.2h-.5c-1.7,0-3,.2-3.2.7-.5.7-.7,3.2-.7,6.9,0,.5,0,4.2.2,11.8v6.9c.2,0,.7.2,1.2.2h7.6c3.4-.2,8.1-.2,13.5-.2,1.7-.2,2.7-.7,3-1,.5-.5.7-2.2,1-4.7.2-2.5.7-3.9,1.7-4.2.5,0,.7,0,1.2.2v1.9c-.2,1.2-.2,4.9-.2,11.3,0,1.7,0,3.7.2,5.7s.2,3.2.2,3.4,0,.7-.2,1.2c-.2.2-.5.2-.5.2h-.5c-.5-1-1-2.2-1.5-4.2-.7-3.2-1.7-5.4-2.7-6.2-1-.7-2.5-1.2-4.4-1.2h-11.1c-4.4,0-7.4,0-8.9.2v21.9c0,3.4.2,5.2.7,5.7.5.7,1.7,1,3.7,1h12.6c6.2,0,10.3-.2,12.6-.7,2-.5,3.7-1.5,5.2-3,1.2-1.5,3-4.4,5.2-8.9.7-1.2,1.2-2,2-2,.2,0,.7,0,1,.5-1,3.2-1.5,5.4-1.7,6.4-.2,2.2-.5,4.7-.7,6.9,0,1-.2,2-.7,2.7h-1.2l-13.8.2h-6.2l-14.5.2h-8.1c-5.9.2-10.1.5-13,.5-.5,0-.7,0-1-.2-.2-.2-.2-.5-.2-.7l.2.1ZM316.1,520.7l6.2-8.6c1.7-2.5,3.4-4.4,5.2-5.4.7-.5,1.5-.7,2.2-.7,1,0,1.5.2,2.2.7.5.5.7,1,.7,1.7s-.2,1.2-.7,2c-.5.7-1.5,1.5-3.2,2.7l-11.7,7.9h-.5l-.4-.3Z"/>
  <path class="st1" d="M418,530.1l.5,7.4c.2,2.2.2,3.7.2,4.7l-1.5.2c-2.2-4.9-4.9-8.6-8.1-11.1s-7.1-3.7-11.8-3.7c-5.7,0-10.1.7-13.3,2-4.7,2-8.6,5.4-11.8,10.3-3.2,4.9-4.9,10.8-4.9,17.7,0,3.9.5,7.6,1.7,10.8s3,6.2,5.2,8.9,4.7,5.2,7.9,7.1c2,1.2,4.2,2.5,6.9,3,1.5.2,3.7.5,6.9.5,2,0,4.2-.2,6.4-.7,2.5-.5,4.2-1.2,5.4-2.2,1.2-1,2-2,2.5-3.2s.7-3.4.7-6.9c0-5.7-.5-8.9-1.2-9.8-.7-1-3.2-1.5-7.1-1.7l-2-.2h-1.2c-.2,0-.5,0-.7-.2l-.7-1.2q0-.2.2-.7c1.7-.2,5.4-.5,11.1-.5h6.2l4.9.2h7.6q.2,0,.5.2v.5c0,.2,0,.7-.2,1.5-1.5.2-2.5.5-3.2.5h-3.2c-1,0-2,.2-2.7,1.2-.2.2-.5,1.5-.5,3.7v6.4c0,4.4-.2,7.1-.5,8.4-.2.7-.5,1.2-1.2,2-.7.5-2,1.2-3.9,2-2.7,1.2-5.4,2-7.6,2.2-4.2.7-8.4,1.2-12.3,1.2-6.4,0-11.8-.7-15.8-2.5-4.2-1.7-7.6-3.9-10.6-6.9s-5.2-5.9-6.4-8.9c-2-4.4-3-8.9-3-13.3,0-5.7,1.5-11.3,4.4-16.7s7.9-9.8,14.5-13.3c4.7-2.5,11.1-3.7,19.2-3.7,5.7,0,10.1.5,13.8,1.5,3.7,1.1,6.7,2.1,8.7,3.3"/>
  <path class="st1" d="M431.5,587.7c.7-.2,1.5-.5,2.2-.5,4.9-.2,7.9-1,8.6-1.7s1-4.9,1-12.6v-10.6l-.2-5.7v-18c0-2,0-4.2-.2-6.4,0-.5-.2-1-.5-1.2-1.2-.7-3.2-1-5.9-1.2-2.7-.2-4.2-.5-4.7-.7-.2-.2-.5-.7-.5-1.5h4.2l13,.2c3.2,0,7.6,0,13.3-.2v1.5c-.7.2-1.7.2-3.2.5-3.2.2-4.9.7-5.7,1-.5.2-.7.5-1,.7-.2.5-.5,1.7-.5,3.2l-.2,6.4.2,21.7v14c0,3.7,0,5.9.2,6.9s.5,1.7,1,2.2,1.2.7,2.2,1c1.5.2,2.7.5,3.4.5,1.7,0,3,.2,3.4.7,0,.5.2.7.2,1v.5c-3,0-5.2.2-6.6.2-.7,0-2.2,0-4.4-.2h-19.2l-.1-1.7Z"/>
  <path class="st1" d="M468.9,558.2c0-3.2.5-6.2,1.2-8.9s2.2-5.4,3.9-8.4c2-3,4.2-5.7,6.9-7.6,2.7-2,6.4-3.9,11.1-5.4,3.2-1,7.4-1.5,12.6-1.5,3.4,0,6.6.5,10.1,1.5,3.2,1,6.2,2.2,8.9,3.7,2.7,1.7,5.4,4.2,8.1,7.4,2,2.5,3.2,4.9,4.2,7.6,1.2,3.4,1.7,7.1,1.7,11.1,0,4.2-.5,7.9-1.2,10.6-.7,3-2.2,5.7-4.2,8.4-1.5,2.2-4.2,4.7-7.9,7.4-2.5,2-5.7,3.4-9.1,4.4-3.7,1.2-7.6,1.7-11.8,1.7s-8.1-.5-11.6-1.5c-3.4-1-6.2-2.2-8.4-3.7s-4.7-3.4-6.9-6.4c-2.5-2.7-4.2-5.9-5.4-9.4-1.7-3.2-2.2-6.9-2.2-11M502.6,588.4c2.7,0,5.7-.5,8.6-1.2,3-.7,5.4-2,7.9-3.7,2.2-1.7,3.9-3.7,5.4-6.2,1.2-2.2,2.2-5.2,3.2-8.6.7-3.4,1.2-7.1,1.2-10.6,0-4.4-.7-8.9-2-13-1-3.2-2.7-6.2-4.9-8.9s-4.9-4.7-8.1-5.9c-3.2-1.5-6.6-2.2-10.3-2.2-3,0-5.9.5-8.6,1.5-3,1-5.2,2.2-6.9,3.7-1.7,1.5-3.4,3.7-5.2,6.4-1.5,2.7-2.7,5.9-3.7,9.1-.7,3.4-1.2,6.4-1.2,8.9,0,2.7.5,5.7,1.2,9.1.7,3.4,2,6.4,3.4,8.9,1.5,2.5,3.2,4.7,5.2,6.6,2,2,4.4,3.4,6.9,4.4,2.3,1.2,5,1.7,7.9,1.7"/>
  <path class="st0" d="M579.4,529.4c.2,2.2.5,3.4.5,3.7l-.2,4.4c0,1.7-.2,3-.2,3.4-.2.2-.5.2-.7.2h-.5c-1-4.4-2.7-7.9-5.2-9.8-2.5-2-5.4-3.2-9.1-3.2s-6.6,1-9.1,3.2c-2.5,2-3.4,4.4-3.4,7.1,0,2.2.7,3.9,2.5,5.7,1.7,1.7,5.9,4.4,12.6,7.9,5.2,2.7,8.9,4.9,11.1,6.6,2.2,1.7,3.9,3.7,4.9,5.9,1.2,2.2,1.7,4.7,1.7,7.4,0,3.4-1,6.6-2.7,9.8-1.7,3-4.2,5.4-7.1,6.9-3,1.5-7.1,2.2-12.1,2.2-4.4,0-8.6-.7-12.6-2.2-2.5-.7-3.7-1.5-4.2-2s-.7-1-.7-1.7v-1.2c.5-3.7.7-6.9.7-9.4,0-1.5.2-2.5.2-2.7q.2-.2.7-.2c.2,0,.5,0,.7.2s.2.5.5,1.2c.2,3.9,2.2,7.6,5.4,10.6,3.2,3.2,6.9,4.7,11.1,4.7,2.5,0,4.9-.5,7.1-1.5,2.2-1,3.9-2.7,4.9-4.7,1.2-2,1.7-3.9,1.7-5.9,0-2.7-1-4.9-2.7-7.1s-5.4-4.7-11.1-7.6c-5.7-3-9.1-4.9-10.8-6.4-2.7-2.2-4.7-4.4-6.2-6.9-1-2-1.5-3.9-1.5-6.6,0-4.4,1.7-8.4,5.4-11.3,3.4-3.2,8.4-4.7,14.3-4.7,3.2,0,6.2.5,8.6,1.2,2.1.5,3.8,1.5,5.5,2.8"/>
</svg>