<?xml version="1.0" encoding="UTF-8"?>
<svg id="Layer_1" xmlns="http://www.w3.org/2000/svg" version="1.1" viewBox="0 0 1920 595.03">
  <!-- Generator: Adobe Illustrator 29.8.1, SVG Export Plug-In . SVG Version: 2.1.1 Build 2)  -->
  <defs>
    <style>
      .st0 {
        fill: #c38629;
      }

      .st1 {
        fill: #1e0f18;
      }
    </style>
  </defs>
  <g>
    <path class="st1" d="M232.32,49.47v211.53h-51.97v-109.84l-53.65,41.01-53.65-41.01v109.84H21.07V49.47l105.62,81.18,105.62-81.18Z"/>
    <path class="st1" d="M368.27,235.15h-66.3l-10.39,25.84h-55.06l98.6-211.53,98.88,211.53h-55.34l-10.39-25.84ZM353.38,198.07l-18.26-45.51-18.26,45.51h36.52Z"/>
    <path class="st1" d="M438.21,53.68h51.97v207.31h-51.97V53.68Z"/>
    <path class="st1" d="M498.33,237.68l25.56-35.4c13.76,10.96,26.12,15.17,36.24,15.17,14.05,0,22.75-8.43,22.75-18.82,0-29.5-73.32-26.41-73.32-84.84,0-34.55,29.78-63.77,70.23-63.77,19.66,0,40.73,7.02,58.99,21.07l-23.04,36.52c-9.83-7.3-20.23-12.36-30.34-12.36-14.05,0-21.07,8.15-21.07,17.14,0,26.12,75.85,25,75.85,86.8,0,32.87-26.97,65.45-76.13,65.45-21.63,0-43.26-7.58-65.73-26.97Z"/>
    <path class="st1" d="M955.09,286.28c-9.55,9.55-23.03,15.17-39.33,15.17-41.58.28-60.12-29.78-92.42-36.8h-.56c-60.4,0-108.43-47.47-108.43-107.31s48.04-107.31,108.43-107.31,108.43,47.47,108.43,107.31c0,37.64-19.1,70.51-48.32,89.61,9.83,5.06,20.23,8.71,32.87,8.71,10.39,0,20.51-2.81,27.81-10.11l11.52,40.73ZM822.78,212.96c30.34,0,52.25-24.44,52.25-55.62s-21.91-55.62-52.25-55.62-52.25,24.44-52.25,55.62,21.91,55.62,52.25,55.62Z"/>
    <path class="st1" d="M947.22,193.58V53.68h51.97v132.87c0,16.29,12.08,28.09,28.93,28.09s28.93-11.8,28.93-28.09V53.68h51.97v139.9c0,40.45-36.52,71.07-80.9,71.07s-80.9-30.62-80.9-71.07Z"/>
    <path class="st1" d="M1183.46,101.44v32.31h72.48v46.63h-72.48v32.87h78.09v47.76h-130.06V53.68h130.06v47.76h-78.09Z"/>
  </g>
  <circle class="st0" cx="1138.53" cy="289.26" r="73.87"/>
  <g>
    <path class="st1" d="M18.26,478.14v-139.9h51.97v132.87c0,16.29,12.08,28.09,28.93,28.09s28.93-11.8,28.93-28.09v-132.87h51.97v139.9c0,40.45-36.52,71.07-80.9,71.07s-80.9-30.62-80.9-71.07Z"/>
    <path class="st1" d="M413.78,334.03v211.53h-51.97v-109.84l-53.65,41.01-53.65-41.01v109.84h-51.97v-211.53l105.62,81.18,105.62-81.18Z"/>
    <path class="st1" d="M549.74,519.71h-66.3l-10.39,25.84h-55.06l98.6-211.53,98.88,211.53h-55.34l-10.39-25.84ZM534.85,482.63l-18.26-45.51-18.26,45.51h36.52Z"/>
    <path class="st1" d="M803.4,519.71h-66.3l-10.39,25.84h-55.06l98.6-211.53,98.88,211.53h-55.34l-10.39-25.84ZM788.51,482.63l-18.26-45.51-18.26,45.51h36.52Z"/>
    <path class="st1" d="M1052.84,419.7v91.86c-20.79,23.32-59.55,37.64-90.74,37.64-61.24,0-108.43-47.19-108.43-107.59s47.19-107.03,108.43-107.03c25.84,0,53.37,9.55,73.6,25.56l-27.81,40.17c-11.52-8.71-26.97-14.05-42.14-14.05-32.31,0-55.9,24.72-55.9,55.9s24.16,55.34,54.78,55.34c14.05,0,27.81-4.5,38.49-12.08v-22.75h-41.86v-42.98h91.58Z"/>
    <path class="st1" d="M1121.66,385.99v32.31h72.48v46.63h-72.48v32.87h78.09v47.76h-130.06v-207.31h130.06v47.75h-78.09Z"/>
    <path class="st1" d="M1385.44,549.77l-116.86-100.01v95.79h-51.97v-211.53l116.86,103.94v-99.72h51.97v211.53Z"/>
    <path class="st1" d="M1400.88,441.9c0-60.4,48.32-107.31,107.03-107.31,30.9,0,57.03,12.64,80.06,32.59l-33.15,37.92c-12.08-10.96-27.81-18.82-44.67-18.82-28.93,0-53.09,23.32-53.09,55.62s24.16,55.62,53.65,55.62c14.05,0,29.5-5.34,43.82-17.14l31.74,37.92c-25.84,21.63-53.37,30.9-78.94,30.9-58.15,0-106.47-46.91-106.47-107.31Z"/>
    <path class="st1" d="M1597.8,338.24h51.97v207.31h-51.97v-207.31Z"/>
    <path class="st1" d="M1785.73,519.71h-66.3l-10.39,25.84h-55.06l98.6-211.53,98.88,211.53h-55.34l-10.39-25.84ZM1770.84,482.63l-18.26-45.51-18.26,45.51h36.52Z"/>
    <path class="st1" d="M1855.11,559.6c6.74-4.21,13.76-8.99,16.29-13.76-13.48-2.53-19.95-12.92-19.95-23.32,0-12.64,8.99-25.56,25.84-25.56,13.76,0,25.84,10.67,25.84,26.69s-9.83,35.96-41.29,50.28l-6.74-14.33Z"/>
  </g>
  <polygon class="st1" points="1188.31 297.47 1165.4 320.09 1138.53 294.64 1111.67 320.09 1088.76 297.47 1138.53 246.27 1188.31 297.47"/>
</svg>