<?xml version="1.0" encoding="UTF-8"?>
<svg xmlns="http://www.w3.org/2000/svg" version="1.1" viewBox="0 0 595.28 208.95">
  <!-- Generator: Adobe Illustrator 29.7.1, SVG Export Plug-In . SVG Version: 2.1.1 Build 8)  -->
  <defs>
    <style>
      .st0 {
        fill: #fff;
      }
    </style>
  </defs>
  <g id="Camada_1">
    <path class="st0" d="M139.11,44.24v85.67h-21.05v-44.49l-21.73,16.61-21.73-16.61v44.49h-21.05V44.24l42.78,32.88,42.78-32.88Z"/>
  </g>
  <g id="Layer_2">
    <path class="st0" d="M148.22,102.61v-56.66h21.05v53.82c0,6.6,4.89,11.38,11.72,11.38s11.72-4.78,11.72-11.38v-53.82h21.05v56.66c0,16.38-14.79,28.79-32.77,28.79s-32.77-12.4-32.77-28.79Z"/>
  </g>
  <g id="Layer_3">
    <path class="st0" d="M274.17,110.58v19.34h-51.31V45.95h21.05v64.63h30.27Z"/>
  </g>
  <g id="Layer_4">
    <path class="st0" d="M333.45,65.29h-20.59v64.63h-21.05v-64.63h-20.59v-19.34h62.24v19.34Z"/>
  </g>
  <g id="Layer_5">
    <path class="st0" d="M336.41,45.95h21.05v83.97h-21.05V45.95Z"/>
  </g>
  <g id="Layer_6">
    <path class="st0" d="M388.75,65.29v13.08h24.35v19.34h-24.35v32.2h-21.05V45.95h50.97v19.34h-29.92Z"/>
  </g>
  <g id="Layer_7">
    <path class="st0" d="M476.82,110.58v19.34h-51.31V45.95h21.05v64.63h30.27Z"/>
  </g>
  <g id="Layer_8">
    <path class="st0" d="M489.13,133.3c12.34-18.98,29.88-48.19,52.6-87.56,0,0-38.21,21.51-38.95,21.51-8.23-5.19-34.11-21.51-34.11-21.51,0,0,20.48,42.54,20.48,42.66v44.9Z"/>
  </g>
  <g id="Layer_9">
    <path class="st0" d="M516.43,120.7c0-5.8,4.66-10.47,10.35-10.47s10.35,4.67,10.35,10.47-4.66,10.35-10.35,10.35-10.35-4.66-10.35-10.35Z"/>
  </g>
  <g id="Layer_10">
    <g>
      <path class="st0" d="M59.56,151.24v2.66h5.96v3.84h-5.96v2.7h6.42v3.93h-10.7v-17.05h10.7v3.93h-6.42Z"/>
      <path class="st0" d="M94.49,147.31l-7.74,17.4-7.72-17.4h4.34l3.4,8.2,3.42-8.2h4.3Z"/>
      <path class="st0" d="M112.06,151.24v2.66h5.96v3.84h-5.96v2.7h6.42v3.93h-10.7v-17.05h10.7v3.93h-6.42Z"/>
      <path class="st0" d="M146.69,164.71l-9.61-8.22v7.88h-4.27v-17.4l9.61,8.55v-8.2h4.27v17.4Z"/>
      <path class="st0" d="M172.87,151.24h-4.18v13.12h-4.27v-13.12h-4.18v-3.93h12.64v3.93Z"/>
      <path class="st0" d="M185,162.45l2.1-2.91c1.13.9,2.15,1.25,2.98,1.25,1.16,0,1.87-.69,1.87-1.55,0-2.43-6.03-2.17-6.03-6.98,0-2.84,2.45-5.24,5.78-5.24,1.62,0,3.35.58,4.85,1.73l-1.89,3c-.81-.6-1.66-1.02-2.49-1.02-1.15,0-1.73.67-1.73,1.41,0,2.15,6.24,2.06,6.24,7.14,0,2.7-2.22,5.38-6.26,5.38-1.78,0-3.56-.62-5.41-2.22Z"/>
      <path class="st0" d="M233.73,151.24v2.66h4.94v3.93h-4.94v6.54h-4.27v-17.05h10.35v3.93h-6.08Z"/>
      <path class="st0" d="M264.56,160.44v3.93h-10.42v-17.05h4.27v13.12h6.15Z"/>
      <path class="st0" d="M291.08,147.31l-7.97,17.05h-4.55l3.17-6.56-5.08-10.49h4.51l2.77,5.91,2.52-5.91h4.64Z"/>
      <path class="st0" d="M304.37,147.31h4.27v17.05h-4.27v-17.05Z"/>
      <path class="st0" d="M337.55,164.71l-9.61-8.22v7.88h-4.27v-17.4l9.61,8.55v-8.2h4.27v17.4Z"/>
      <path class="st0" d="M368.14,154.01v7.55c-1.71,1.92-4.9,3.1-7.46,3.1-5.04,0-8.92-3.88-8.92-8.85s3.88-8.8,8.92-8.8c2.13,0,4.39.79,6.05,2.1l-2.29,3.3c-.95-.72-2.22-1.16-3.47-1.16-2.66,0-4.6,2.03-4.6,4.6s1.99,4.55,4.51,4.55c1.16,0,2.29-.37,3.17-.99v-1.87h-3.44v-3.53h7.53Z"/>
      <path class="st0" d="M410.52,162.24h-5.45l-.85,2.13h-4.53l8.11-17.4,8.13,17.4h-4.55l-.85-2.13ZM409.29,159.19l-1.5-3.74-1.5,3.74h3Z"/>
      <path class="st0" d="M441.76,159.28c0,3-2.36,5.08-5.8,5.08h-6.75v-17.05h6.38c3.17,0,5.22,1.76,5.22,4.46,0,1.5-.72,2.77-1.87,3.6,1.76.74,2.82,2.13,2.82,3.9ZM433.39,151.03v3.05h1.52c.83,0,1.41-.55,1.41-1.5,0-1.02-.58-1.55-1.41-1.55h-1.52ZM437.14,158.98c0-1.04-.69-1.62-1.76-1.62h-1.99v3.28h1.96c1.09,0,1.78-.58,1.78-1.66Z"/>
      <path class="st0" d="M455.09,155.84c0-4.92,3.95-8.83,8.92-8.83s8.92,3.9,8.92,8.83-3.95,8.83-8.92,8.83-8.92-3.91-8.92-8.83ZM468.3,155.84c0-2.56-1.8-4.58-4.3-4.58s-4.3,2.01-4.3,4.58,1.8,4.57,4.3,4.57,4.3-2.01,4.3-4.57Z"/>
      <path class="st0" d="M500.17,147.31l-7.74,17.4-7.72-17.4h4.34l3.4,8.2,3.42-8.2h4.3Z"/>
      <path class="st0" d="M517.73,151.24v2.66h5.96v3.84h-5.96v2.7h6.42v3.93h-10.7v-17.05h10.7v3.93h-6.42Z"/>
    </g>
  </g>
</svg>