<?xml version="1.0" encoding="UTF-8"?>
<svg id="Layer_1" xmlns="http://www.w3.org/2000/svg" version="1.1" viewBox="0 0 1080 1080">
  <!-- Generator: Adobe Illustrator 29.8.2, SVG Export Plug-In . SVG Version: 2.1.1 Build 3)  -->
  <defs>
    <style>
      .st0 {
        fill: #fff;
      }
    </style>
  </defs>
  <path class="st0" d="M530.95,651.99c.75,65.22.78,130.49.31,195.7-.22,5.3.69,7.36,6.65,7.29,38.86.53,78.06-2.24,116.76,1.12,18.25,2.94,20.23,31.08,1.49,35.78-91.42,3.97-183.66.15-275.34,1.4-12.17.96-26.88-5.53-26.18-19.03,0-16.09,16.94-20.17,30.4-19.49,32.56-.12,65.12-.28,97.67.07,14.65,1.47,9.71-14.49,10.48-23.93-.21-58.58-.22-117.15.08-175.73.05-8.13-2.51-10.99-10.47-12.2-124.38-16.91-184.53-147.35-167.02-262.2,3.86-60.67,16.78-120.16,35.07-177.95,3.59-11.78,11.68-17.87,23.75-18.93,90.13-.96,180.31-.05,270.46-.35,17.06,0,24.55,5.04,29.3,21.45,50.65,155.33,75.49,402.55-135.95,438.25-5.45.92-7.59,3.16-7.47,8.73Z"/>
  <path class="st0" d="M518.76,222.03c-39.23,0-78.47.19-117.7-.16-7.81-.07-11.37,2.59-13.5,10.03-20.43,71.3-32.23,143.66-28.12,218.11,2.22,40.18,14.96,76.07,42.58,106.12,36.99,40.25,83.05,57.67,136.72,50.48,74.68-10,132.31-74.44,137.65-149.59,2.16-30.38,1.24-60.51-1.81-90.73-4.62-45.78-13.14-90.73-26.02-134.91-2.07-7.1-5.5-9.57-12.93-9.51-38.95.34-77.91.16-116.86.15Z"/>
  <path class="st0" d="M652.4,431.85c-1.76,229.57-315.7,195.77-279.85-30.42.71-5.71,2.94-6.63,7.58-4.02,45.14,25.33,90.14,17.56,134.77-1.17,38.76-17.12,80.41-36.94,123.86-27.2,6.92,1.54,9.97,5.06,10.67,12.47,1.53,16.33,3.5,32.6,2.97,50.33Z"/>
</svg>