<?xml version="1.0" encoding="UTF-8"?>
<svg id="Layer_1" xmlns="http://www.w3.org/2000/svg" version="1.1" viewBox="0 0 377.2 328">
  <!-- Generator: Adobe Illustrator 30.0.0, SVG Export Plug-In . SVG Version: 2.1.1 Build 123)  -->
  <defs>
    <style>
      .st0 {
        fill: #fff;
      }
    </style>
  </defs>
  <path class="st0" d="M0,162.7l1.2,21.1,21.1,13.8c1.8,1.1,2.9,3.1,3,5.2l1.4,25.2,21.1,13.8c1.8,1.1,2.9,3.1,3,5.2l1.4,25.2,21.1,13.8c1.8,1.1,2.9,3.1,3,5.2l1.4,25.2,17.7,11.6h0l67.8-39.2L67.8,123.6,0,162.7ZM63.1,176.6c-1,.6-2.2.9-3.3.9-2.3,0-4.5-1.2-5.7-3.3l-10.5-18.2c-1.8-3.2-.7-7.2,2.4-9,3.2-1.8,7.2-.7,9,2.4l10.5,18.2c1.8,3.1.7,7.1-2.4,9ZM115,266.4c3.2-1.8,7.2-.7,9,2.4l10.5,18.2c1.8,3.2.7,7.2-2.4,9-1,.6-2.2.9-3.3.9-2.3,0-4.5-1.2-5.7-3.3l-10.5-18.2c-1.9-3.1-.8-7.1,2.4-9ZM91.9,226.6c3.2-1.8,7.2-.7,9,2.4l10.5,18.2c1.8,3.2.7,7.2-2.4,9-1,.6-2.2.9-3.3.9-2.3,0-4.5-1.2-5.7-3.3l-10.5-18.2c-1.8-3.1-.7-7.2,2.4-9ZM78,189.2l10.5,18.2c1.8,3.2.7,7.2-2.4,9-1,.6-2.2.9-3.3.9-2.3,0-4.5-1.2-5.7-3.3l-10.5-18.2c-1.8-3.2-.7-7.2,2.4-9,3.1-1.9,7.2-.8,9,2.4Z"/>
  <path class="st0" d="M281.8,0L79.3,117l95.4,165.2,202.5-116.9L281.8,0ZM278.9,59.9c1.8,3.2.7,7.2-2.4,9.1l-64.5,37.3c-1,.6-2.2.9-3.3.9-2.3,0-4.5-1.2-5.7-3.3-1.8-3.2-.7-7.2,2.4-9l64.5-37.3c3.2-2,7.2-.9,9,2.3ZM192,71.5l64.5-37.3c3.2-1.8,7.2-.7,9,2.4,1.8,3.2.7,7.2-2.4,9l-64.5,37.4c-1,.6-2.2.9-3.3.9-2.3,0-4.5-1.2-5.7-3.3-1.8-3.2-.8-7.2,2.4-9.1ZM108.3,125.2l46.6-26.9,13,22.5-46.6,26.9-13-22.5ZM136,179.9c-2.3,0-4.5-1.2-5.7-3.3-1.8-3.2-.7-7.2,2.4-9l150.6-86.9c3.2-1.8,7.2-.7,9,2.4s.7,7.2-2.4,9l-150.6,86.9c-1,.6-2.1.9-3.3.9ZM149.4,203.1c-2.3,0-4.5-1.2-5.7-3.3-1.8-3.2-.7-7.2,2.4-9l150.6-86.9c3.2-1.8,7.2-.7,9,2.4,1.8,3.2.7,7.2-2.4,9l-150.6,86.9c-1,.6-2.2.9-3.3.9ZM162.8,226.3c-2.3,0-4.5-1.2-5.7-3.3-1.8-3.2-.7-7.2,2.4-9l95.8-55.3c3.2-1.8,7.2-.7,9,2.4,1.8,3.2.7,7.2-2.4,9l-95.8,55.3c-1,.6-2.2.9-3.3.9ZM275.3,193.2l-95.8,55.3c-1,.6-2.2.9-3.3.9-2.3,0-4.5-1.2-5.7-3.3-1.8-3.2-.7-7.2,2.4-9l95.8-55.3c3.2-1.8,7.2-.7,9,2.4,1.9,3.2.8,7.2-2.4,9ZM288.7,161.4l46.6-26.9,13,22.5-46.6,26.9-13-22.5Z"/>
</svg>